<svg xmlns="http://www.w3.org/2000/svg" width="666" height="375" viewBox="0 0 666 375" version="1.1"><path d="M 347.436 43.305 C 347.161 44.023, 347.062 50.211, 347.218 57.055 C 347.500 69.500, 347.500 69.500, 354 69.568 C 360.500 69.637, 360.500 69.637, 354.250 69.273 C 348 68.909, 348 68.909, 348 56.018 C 348 43.127, 348 43.127, 351.250 42.723 C 354.500 42.320, 354.500 42.320, 351.219 42.160 C 349.314 42.067, 347.727 42.548, 347.436 43.305 M 516.435 43.308 C 516.159 44.028, 516.063 49.990, 516.222 56.558 C 516.511 68.500, 516.511 68.500, 517.005 55.248 C 517.277 47.960, 517.373 41.997, 517.219 41.998 C 517.064 41.999, 516.711 42.589, 516.435 43.308 M 538.667 42.667 C 538.300 43.033, 538 49.122, 538 56.198 C 538 66.956, 538.257 69.161, 539.567 69.664 C 540.429 69.995, 541.619 69.781, 542.211 69.189 C 542.980 68.420, 542.675 68.272, 541.144 68.673 C 539.033 69.225, 539 69.033, 539 56.177 C 539 43.121, 539 43.121, 542.750 42.728 C 546.500 42.336, 546.500 42.336, 542.917 42.168 C 540.946 42.076, 539.033 42.300, 538.667 42.667" stroke="none" fill="#b46466" fill-rule="evenodd"/><path d="M 34.259 8.028 C 33.027 8.523, 29.990 10.958, 27.509 13.438 C 25.029 15.918, 23 18.859, 23 19.974 C 23 21.339, 23.658 22, 25.017 22 C 26.126 22, 29.019 19.928, 31.445 17.396 C 33.871 14.864, 36.272 13.050, 36.781 13.365 C 37.338 13.709, 37.257 15.642, 36.577 18.218 C 35.956 20.573, 34.720 24.525, 33.831 27 C 32.941 29.475, 30.976 35.325, 29.464 40 C 27.952 44.675, 26.128 50.525, 25.412 53 C 24.695 55.475, 23.184 60.157, 22.054 63.405 C 20.924 66.653, 20 69.691, 20 70.155 C 20 70.620, 21.254 71, 22.788 71 C 25.507 71, 25.705 70.602, 30.854 54.750 C 33.758 45.813, 37.116 36.496, 38.316 34.046 C 39.517 31.597, 41.400 28.218, 42.500 26.537 C 43.600 24.856, 46.021 21.812, 47.881 19.773 C 49.740 17.734, 53.235 15.312, 55.646 14.391 C 59.810 12.801, 60.131 12.809, 62.053 14.548 C 63.615 15.962, 63.923 17.075, 63.404 19.435 C 63.035 21.116, 62.145 23.844, 61.426 25.496 C 60.706 27.148, 57.797 35.925, 54.960 45 C 52.122 54.075, 49.171 63.197, 48.400 65.270 C 47.630 67.344, 47 69.481, 47 70.020 C 47 70.559, 48.257 71, 49.793 71 C 52.156 71, 52.759 70.422, 53.704 67.250 C 54.319 65.188, 56.033 59.900, 57.512 55.500 C 58.992 51.100, 61.378 44.350, 62.814 40.500 C 64.251 36.650, 66.117 32.330, 66.963 30.901 C 67.808 29.471, 69.393 26.996, 70.485 25.401 C 71.577 23.805, 73.995 20.991, 75.859 19.147 C 77.723 17.303, 80.800 15.146, 82.698 14.353 C 84.595 13.560, 87.013 13.187, 88.071 13.523 C 89.129 13.858, 90.277 15.256, 90.622 16.629 C 90.976 18.042, 90.576 20.723, 89.698 22.812 C 88.845 24.840, 87.208 29.425, 86.059 33 C 84.911 36.575, 82.815 42.875, 81.402 47 C 79.988 51.125, 78.391 56.378, 77.851 58.674 C 77.312 60.970, 77.012 64.570, 77.185 66.674 C 77.484 70.305, 77.691 70.516, 81.238 70.810 C 84.047 71.042, 85.832 70.467, 88.414 68.498 C 90.304 67.056, 92.555 64.803, 93.414 63.490 C 94.274 62.178, 94.709 60.406, 94.382 59.552 C 94.054 58.699, 93.282 58, 92.665 58 C 92.048 58, 89.831 59.874, 87.737 62.165 C 85.011 65.147, 83.623 66.023, 82.850 65.250 C 82.076 64.476, 82.193 62.939, 83.260 59.835 C 84.080 57.451, 85.527 53.025, 86.476 50 C 87.425 46.975, 89.028 42.250, 90.038 39.500 C 91.048 36.750, 93.030 30.675, 94.442 26 C 95.854 21.325, 97.007 16.535, 97.004 15.356 C 97.002 14.176, 95.694 11.814, 94.099 10.106 C 92 7.859, 90.295 7, 87.937 7 C 86.143 7, 82.616 8.207, 80.099 9.682 C 77.582 11.157, 74.055 13.920, 72.261 15.822 C 69 19.280, 69 19.280, 69 15.862 C 69 13.983, 68.312 11.463, 67.471 10.262 C 66.630 9.062, 64.395 7.790, 62.504 7.435 C 59.985 6.962, 57.814 7.396, 54.384 9.056 C 51.809 10.303, 48.197 12.645, 46.356 14.260 C 43.010 17.198, 43.010 17.198, 43.609 14.203 C 44.059 11.954, 43.685 10.685, 42.104 9.104 C 40.947 7.947, 39.212 7.029, 38.250 7.063 C 37.288 7.098, 35.492 7.532, 34.259 8.028 M 210.046 22.445 C 209.386 23.240, 208.994 24.927, 209.173 26.195 C 209.432 28.017, 210.129 28.500, 212.500 28.500 C 215.245 28.500, 215.526 28.181, 215.810 24.750 C 216.091 21.357, 215.888 21, 213.683 21 C 212.342 21, 210.705 21.650, 210.046 22.445 M 230.046 22.445 C 229.386 23.240, 228.994 24.927, 229.173 26.195 C 229.410 27.864, 230.259 28.587, 232.250 28.816 C 234.456 29.070, 235.201 28.602, 236.021 26.445 C 236.747 24.535, 236.712 23.358, 235.899 22.378 C 235.270 21.620, 233.965 21, 233 21 C 232.035 21, 230.705 21.650, 230.046 22.445 M 248.250 21.641 C 247.563 21.930, 247 23.704, 247 25.583 C 247 28.501, 247.343 29, 249.345 29 C 250.635 29, 252.474 28.133, 253.433 27.074 C 254.391 26.015, 255.020 24.328, 254.829 23.324 C 254.618 22.210, 253.513 21.425, 251.991 21.307 C 250.621 21.201, 248.938 21.351, 248.250 21.641 M 114.172 38.942 C 112.342 39.402, 109.598 41.066, 108.074 42.640 C 106.550 44.213, 104.776 46.500, 104.131 47.723 C 103.486 48.946, 102.539 52.155, 102.027 54.856 C 101.446 57.920, 101.453 61.058, 102.047 63.207 C 102.569 65.100, 104.010 67.567, 105.248 68.690 C 106.487 69.813, 108.910 70.995, 110.633 71.317 C 112.356 71.640, 115.283 71.484, 117.138 70.972 C 118.992 70.461, 121.857 68.761, 123.504 67.195 C 125.152 65.630, 127.368 63.272, 128.428 61.955 C 129.830 60.215, 130.476 57.490, 130.795 51.973 C 131.194 45.082, 131.017 44.136, 128.867 41.685 C 127.133 39.707, 125.297 38.867, 122 38.544 C 119.525 38.302, 116.003 38.481, 114.172 38.942 M 138.084 41.577 C 135.784 43.675, 134.875 45.233, 135.303 46.346 C 135.652 47.256, 136.367 48, 136.892 48 C 137.417 48, 139.269 46.803, 141.009 45.339 C 144.171 42.679, 144.171 42.679, 143.449 47.589 C 143.052 50.290, 142.269 53.625, 141.708 55 C 141.148 56.375, 139.874 59.750, 138.877 62.500 C 137.881 65.250, 137.051 68.287, 137.033 69.250 C 137.010 70.463, 137.774 71, 139.521 71 C 141.341 71, 142.347 70.234, 143.135 68.250 C 143.736 66.737, 145.093 63.700, 146.151 61.500 C 147.208 59.300, 148.961 55.925, 150.045 54 C 151.129 52.075, 153.581 49.067, 155.492 47.316 C 157.404 45.564, 159.988 43.989, 161.234 43.816 C 162.879 43.586, 163.580 44.055, 163.790 45.528 C 163.950 46.643, 162.689 51.593, 160.987 56.528 C 159.286 61.463, 157.641 66.737, 157.333 68.250 C 156.834 70.702, 157.062 71, 159.438 71 C 161.588 71, 162.386 70.276, 163.575 67.250 C 164.386 65.188, 165.463 62.825, 165.971 62 C 166.478 61.175, 168.100 58.259, 169.576 55.520 C 171.052 52.781, 173.710 49.090, 175.484 47.316 C 177.257 45.543, 179.891 43.877, 181.338 43.615 C 182.784 43.353, 184.238 43.576, 184.569 44.112 C 184.900 44.647, 184.409 47.428, 183.478 50.292 C 182.548 53.157, 180.888 57.871, 179.790 60.768 C 177.928 65.683, 177.903 66.203, 179.420 68.518 C 180.622 70.352, 181.930 71, 184.434 71 C 187.007 71, 188.460 70.242, 190.474 67.849 C 192.863 65.009, 192.973 64.545, 191.583 63.155 C 190.194 61.765, 189.792 61.847, 187.525 63.977 C 186.140 65.277, 184.747 66.080, 184.428 65.761 C 184.109 65.442, 185.036 62.328, 186.489 58.840 C 187.942 55.353, 189.387 49.699, 189.700 46.276 C 190.262 40.135, 190.232 40.039, 187.395 38.960 C 185.814 38.359, 182.987 38.155, 181.112 38.507 C 178.982 38.906, 176.257 40.651, 173.851 43.155 C 170 47.163, 170 47.163, 170 43.557 C 170 40.585, 169.538 39.775, 167.377 38.953 C 165.934 38.405, 163.121 38.246, 161.127 38.602 C 158.966 38.987, 156.287 40.511, 154.500 42.374 C 151.500 45.500, 151.500 45.500, 151.184 42.750 C 151.009 41.237, 150.031 39.552, 149.009 39.005 C 147.986 38.458, 145.879 38.112, 144.325 38.236 C 142.771 38.360, 139.963 39.863, 138.084 41.577 M 204.424 42.750 C 203.543 44.813, 202.161 48.750, 201.353 51.500 C 200.546 54.250, 199.406 58.613, 198.820 61.196 C 198.235 63.779, 198.045 67.042, 198.397 68.446 C 198.933 70.581, 199.617 71, 202.565 71 C 204.975 71, 206.867 70.223, 208.545 68.545 C 209.895 67.195, 211 65.422, 211 64.604 C 211 63.787, 210.517 62.819, 209.926 62.454 C 209.335 62.089, 207.762 62.814, 206.430 64.066 C 205.098 65.317, 203.752 66.086, 203.440 65.773 C 203.128 65.461, 204.082 61.672, 205.560 57.353 C 207.039 53.034, 208.583 48.825, 208.993 48 C 209.402 47.175, 210.041 44.813, 210.414 42.750 C 211.050 39.226, 210.938 39, 208.559 39 C 206.585 39, 205.674 39.826, 204.424 42.750 M 222.540 47.750 C 221.057 52.563, 219.009 58.750, 217.990 61.500 C 216.970 64.250, 215.988 67.400, 215.807 68.500 C 215.625 69.600, 212.404 72.808, 208.649 75.629 C 204.894 78.450, 200.287 82.916, 198.411 85.555 C 195.812 89.210, 195 91.368, 195 94.619 C 195 97.895, 195.516 99.248, 197.223 100.443 C 198.445 101.299, 200.492 102, 201.772 102 C 203.052 102, 205.384 101.336, 206.953 100.524 C 208.523 99.713, 210.712 97.575, 211.818 95.774 C 212.924 93.973, 215.016 88.818, 216.468 84.317 C 217.919 79.817, 220.015 74.979, 221.126 73.567 C 222.236 72.155, 223.675 70.985, 224.323 70.967 C 224.970 70.948, 226.512 70.089, 227.750 69.056 C 228.988 68.024, 230 66.464, 230 65.590 C 230 64.715, 229.295 64, 228.434 64 C 227.573 64, 225.998 64.466, 224.934 65.035 C 223.488 65.809, 223 65.746, 223 64.785 C 223 64.078, 224.575 59.094, 226.500 53.709 C 228.425 48.324, 230 42.812, 230 41.459 C 230 39.535, 229.482 39, 227.618 39 C 225.496 39, 224.942 39.954, 222.540 47.750 M 242.011 43.250 C 241.291 45.587, 239.341 51.649, 237.677 56.720 C 235.147 64.433, 234.840 66.354, 235.805 68.470 C 236.690 70.413, 237.703 71, 240.174 71 C 242.302 71, 244.340 70.091, 246.195 68.313 C 247.738 66.835, 249 65.062, 249 64.372 C 249 63.682, 248.603 62.873, 248.118 62.573 C 247.632 62.273, 246.033 62.972, 244.565 64.128 C 243.096 65.283, 241.648 65.982, 241.347 65.681 C 241.046 65.380, 242.209 60.941, 243.931 55.817 C 245.654 50.693, 247.446 45.060, 247.915 43.300 C 248.383 41.540, 248.519 39.853, 248.217 39.550 C 247.914 39.248, 246.689 39, 245.493 39 C 243.809 39, 243.026 39.955, 242.011 43.250 M 289.445 43.283 C 289.139 44.080, 289.814 47.479, 290.944 50.835 C 292.075 54.191, 293 58.234, 293 59.819 C 293 61.405, 293.494 64.119, 294.098 65.851 C 294.879 68.092, 295.828 69, 297.389 69 C 299.323 69, 299.867 67.881, 301.985 59.560 C 303.306 54.369, 304.750 50.345, 305.193 50.619 C 305.637 50.894, 306 52.056, 306 53.202 C 306 54.348, 307.012 58.362, 308.250 62.121 C 310.084 67.691, 310.892 68.960, 312.620 68.978 C 314.287 68.995, 314.969 68.091, 315.808 64.750 C 316.396 62.413, 317.779 56.982, 318.881 52.682 C 319.983 48.382, 320.649 44.248, 320.360 43.495 C 320.071 42.742, 319.251 42.350, 318.538 42.624 C 317.825 42.897, 316.960 44.556, 316.615 46.311 C 316.270 48.065, 315.144 52.650, 314.111 56.500 C 312.234 63.500, 312.234 63.500, 311.130 59.500 C 310.523 57.300, 309.208 52.575, 308.208 49 C 307.126 45.129, 305.847 42.500, 305.047 42.500 C 304.304 42.500, 302.907 44.946, 301.919 47.976 C 300.938 50.988, 299.946 55.086, 299.715 57.082 C 299.484 59.079, 298.977 61.227, 298.589 61.856 C 298.200 62.485, 297.459 63, 296.941 63 C 296.423 63, 295.990 61.538, 295.977 59.750 C 295.965 57.962, 295.156 53.381, 294.181 49.568 C 293.205 45.755, 291.865 42.455, 291.204 42.235 C 290.542 42.014, 289.751 42.486, 289.445 43.283 M 326.555 42.779 C 326.250 43.084, 326 49.127, 326 56.207 C 326 69.081, 326 69.081, 334.250 68.790 C 339.102 68.620, 342.401 68.088, 342.259 67.500 C 342.127 66.950, 339.089 66.367, 335.509 66.204 C 329 65.909, 329 65.909, 329 61.454 C 329 57, 329 57, 335 57 C 340.333 57, 341 56.778, 341 55 C 341 53.222, 340.333 53, 335 53 C 329 53, 329 53, 329 49.500 C 329 46, 329 46, 335.573 46 C 341.296 46, 342.103 45.774, 341.808 44.250 C 341.526 42.793, 340.265 42.477, 334.289 42.362 C 330.340 42.286, 326.860 42.474, 326.555 42.779 M 351.250 42.681 C 348 43.127, 348 43.127, 348 56.063 C 348 69, 348 69, 354.566 69 C 358.177 69, 362.114 68.483, 363.316 67.850 C 364.517 67.218, 365.831 66.205, 366.235 65.600 C 366.639 64.995, 366.976 62.828, 366.985 60.785 C 366.996 58.035, 366.459 56.781, 364.917 55.956 C 363.004 54.932, 362.963 54.699, 364.417 53.092 C 365.288 52.130, 366 50.151, 366 48.694 C 366 47.004, 365.134 45.479, 363.606 44.477 C 362.289 43.615, 359.701 42.757, 357.856 42.572 C 356.010 42.386, 353.038 42.436, 351.250 42.681 M 382.875 45.915 C 382.805 47.887, 382.732 53.775, 382.710 59 C 382.672 68.500, 382.672 68.500, 390.302 68.500 C 396.024 68.500, 398.339 68.092, 399.562 66.869 C 400.458 65.971, 401.239 63.567, 401.296 61.524 C 401.373 58.826, 400.815 57.359, 399.255 56.156 C 397.329 54.671, 397.257 54.300, 398.554 52.559 C 399.349 51.491, 400 49.854, 400 48.920 C 400 47.986, 399.163 46.188, 398.141 44.926 C 396.568 42.984, 395.258 42.607, 389.641 42.480 C 383 42.330, 383 42.330, 382.875 45.915 M 411.250 42.715 C 407 43.115, 407 43.115, 407 56.057 C 407 68.223, 407.117 69, 408.950 69 C 410.623 69, 410.943 68.182, 411.200 63.250 C 411.499 57.516, 411.508 57.501, 414.488 57.825 C 416.132 58.004, 418.053 58.629, 418.759 59.215 C 419.464 59.800, 420.536 62.242, 421.139 64.640 C 421.919 67.737, 422.752 69, 424.012 69 C 425.583 69, 425.678 68.510, 424.838 64.750 C 424.315 62.413, 423.233 59.495, 422.432 58.266 C 421.111 56.240, 421.163 55.915, 422.988 54.776 C 424.421 53.881, 425 52.444, 425 49.783 C 425 47.006, 424.422 45.672, 422.750 44.591 C 421.512 43.790, 419.375 42.951, 418 42.726 C 416.625 42.500, 413.587 42.496, 411.250 42.715 M 435.984 43.855 C 433.738 45.052, 432.076 46.917, 431.306 49.105 C 430.650 50.972, 430.087 53.681, 430.056 55.125 C 430.025 56.569, 430.275 59.125, 430.611 60.806 C 430.947 62.486, 432.074 64.776, 433.115 65.893 C 434.156 67.011, 436.837 68.417, 439.071 69.019 C 442.562 69.959, 443.738 69.821, 447.413 68.042 C 450.819 66.393, 451.928 65.185, 452.846 62.119 C 453.481 60.001, 454 56.835, 454 55.084 C 454 53.333, 453.334 50.613, 452.520 49.039 C 451.706 47.465, 449.845 45.237, 448.385 44.088 C 446.925 42.940, 444.321 42, 442.600 42 C 440.878 42, 437.901 42.835, 435.984 43.855 M 457.777 42.556 C 457.472 42.862, 457.592 44.549, 458.046 46.306 C 458.499 48.063, 459.801 52.875, 460.938 57 C 462.076 61.125, 463.005 65.513, 463.003 66.750 C 463.001 68.443, 463.579 69, 465.339 69 C 466.876 69, 468.077 68.126, 468.839 66.453 C 469.478 65.052, 470 63.020, 470 61.937 C 470 60.854, 470.560 58.175, 471.244 55.982 C 471.928 53.790, 472.941 52.144, 473.494 52.324 C 474.047 52.504, 474.863 54.418, 475.307 56.576 C 475.751 58.734, 476.651 62.300, 477.307 64.500 C 478.246 67.647, 479.041 68.563, 481.034 68.796 C 482.980 69.023, 483.603 68.616, 483.722 67.042 C 483.807 65.915, 485.115 60.055, 486.629 54.020 C 488.143 47.986, 489.060 42.727, 488.667 42.334 C 488.274 41.941, 487.362 42.267, 486.640 43.060 C 485.918 43.852, 484.834 46.300, 484.231 48.500 C 483.629 50.700, 482.828 54.643, 482.452 57.262 C 482.077 59.882, 481.433 62.232, 481.022 62.486 C 480.612 62.740, 479.249 58.686, 477.995 53.477 C 476.740 48.269, 475.133 43.525, 474.424 42.937 C 473.459 42.136, 472.767 42.450, 471.679 44.183 C 470.879 45.457, 469.920 48.300, 469.548 50.500 C 469.176 52.700, 468.379 56.188, 467.777 58.250 C 467.176 60.313, 466.305 62, 465.842 62 C 465.379 62, 464.966 61.663, 464.923 61.250 C 464.881 60.837, 464.656 59.600, 464.423 58.500 C 464.189 57.400, 463.710 54.475, 463.359 52 C 463.007 49.525, 462.096 46.263, 461.334 44.750 C 460.572 43.237, 459.585 42, 459.141 42 C 458.697 42, 458.083 42.250, 457.777 42.556 M 495.468 44.441 C 493.269 46.640, 492.891 47.716, 493.402 50.316 C 493.746 52.067, 494.800 54.076, 495.744 54.779 C 496.689 55.482, 499.270 56.574, 501.481 57.204 C 503.691 57.834, 506.063 58.776, 506.750 59.298 C 507.438 59.819, 508 61.074, 508 62.087 C 508 63.101, 507.130 64.395, 506.066 64.965 C 505.002 65.534, 502.852 66, 501.288 66 C 499.724 66, 497.407 65.273, 496.138 64.384 C 494.632 63.329, 493.491 63.109, 492.851 63.749 C 492.211 64.389, 492.430 65.287, 493.480 66.338 C 494.365 67.222, 496.906 68.491, 499.127 69.156 C 502.633 70.207, 503.618 70.122, 506.606 68.513 C 508.499 67.494, 510.310 65.611, 510.632 64.330 C 510.954 63.048, 510.948 60.930, 510.620 59.623 C 510.292 58.315, 508.781 56.428, 507.262 55.429 C 505.743 54.430, 502.925 53.355, 501 53.040 C 497.910 52.533, 497.500 52.116, 497.500 49.483 C 497.500 46.500, 497.500 46.500, 503.750 46.739 C 507.188 46.870, 510 46.587, 510 46.111 C 510 45.635, 509.392 44.740, 508.649 44.124 C 507.906 43.507, 505.242 42.721, 502.729 42.376 C 498.668 41.820, 497.860 42.049, 495.468 44.441 M 517.453 42.880 C 517.204 43.129, 517 49.127, 517 56.207 C 517 69.081, 517 69.081, 525.250 68.790 C 530.102 68.620, 533.401 68.088, 533.259 67.500 C 533.127 66.950, 530.064 66.366, 526.454 66.203 C 519.890 65.906, 519.890 65.906, 520.195 61.703 C 520.500 57.500, 520.500 57.500, 526.313 57.198 C 531.153 56.947, 532.073 56.612, 531.804 55.198 C 531.552 53.877, 530.193 53.433, 525.681 53.198 C 519.881 52.897, 519.881 52.897, 520.190 49.698 C 520.499 46.511, 520.522 46.499, 526.750 46.202 C 532.256 45.940, 533 45.664, 533 43.885 C 533 42.012, 532.451 41.885, 525.453 42.146 C 521.303 42.300, 517.703 42.631, 517.453 42.880 M 542.750 42.695 C 539 43.121, 539 43.121, 539 56.134 C 539 67.951, 539.160 69.116, 540.737 68.812 C 542.109 68.548, 542.490 67.382, 542.550 63.259 C 542.592 60.389, 542.886 57.781, 543.203 57.463 C 543.521 57.146, 545.213 57.257, 546.964 57.711 C 548.749 58.173, 550.748 59.627, 551.513 61.018 C 552.263 62.383, 553.138 64.737, 553.458 66.250 C 553.777 67.763, 554.676 69, 555.456 69 C 556.527 69, 556.738 68.082, 556.317 65.250 C 556.010 63.188, 555.103 60.449, 554.301 59.165 C 553.012 57.102, 553.026 56.628, 554.422 55.087 C 555.290 54.127, 556 51.760, 556 49.826 C 556 47.699, 555.283 45.661, 554.184 44.667 C 553.186 43.763, 551.048 42.854, 549.434 42.646 C 547.820 42.439, 544.813 42.461, 542.750 42.695 M 115.054 44.752 C 112.844 45.873, 110.791 48.115, 109.332 51 C 108.080 53.475, 107.044 56.945, 107.028 58.711 C 107.010 60.753, 107.797 62.664, 109.189 63.961 C 110.392 65.082, 112.381 66, 113.608 66 C 114.834 66, 117.180 65.230, 118.820 64.289 C 120.460 63.347, 122.491 60.985, 123.334 59.039 C 124.176 57.092, 125.167 53.837, 125.534 51.805 C 126.099 48.677, 125.810 47.719, 123.646 45.555 C 122.241 44.150, 120.508 43.001, 119.795 43.002 C 119.083 43.002, 116.949 43.790, 115.054 44.752 M 352 49.555 C 352 53.110, 352 53.110, 356.750 52.805 C 360.891 52.539, 361.543 52.194, 361.837 50.113 C 362.023 48.800, 361.573 47.345, 360.837 46.878 C 360.102 46.412, 357.813 46.024, 355.750 46.015 C 352.117 46, 352 46.111, 352 49.555 M 386 49.555 C 386 53.110, 386 53.110, 390.648 52.805 C 393.825 52.596, 395.644 51.928, 396.398 50.691 C 397.278 49.247, 397.110 48.593, 395.559 47.441 C 394.491 46.649, 391.904 46, 389.809 46 C 386.111 46, 386 46.104, 386 49.555 M 411 50 C 411 53.887, 411.097 54, 414.418 54 C 416.298 54, 418.548 53.727, 419.418 53.393 C 420.337 53.040, 421 51.618, 421 50 C 421 48.382, 420.337 46.960, 419.418 46.607 C 418.548 46.273, 416.298 46, 414.418 46 C 411.097 46, 411 46.113, 411 50 M 437.291 47.150 C 435.738 47.937, 434.892 49.537, 434.441 52.542 C 434.089 54.893, 434.129 58.313, 434.532 60.143 C 434.934 61.974, 435.991 64.026, 436.881 64.704 C 437.772 65.382, 439.983 65.951, 441.795 65.968 C 444.030 65.990, 445.918 65.173, 447.661 63.430 C 449.973 61.118, 450.187 60.265, 449.800 54.915 C 449.564 51.646, 448.891 48.491, 448.306 47.906 C 447.721 47.321, 445.500 46.660, 443.371 46.436 C 441.242 46.213, 438.506 46.534, 437.291 47.150 M 542.673 49.250 C 542.768 51.037, 542.881 52.837, 542.923 53.250 C 542.965 53.663, 544.538 54, 546.418 54 C 548.298 54, 550.548 53.727, 551.418 53.393 C 552.337 53.040, 553 51.618, 553 50 C 553 48.382, 552.337 46.960, 551.418 46.607 C 550.548 46.273, 548.186 46, 546.168 46 C 542.661 46, 542.508 46.142, 542.673 49.250 M 352 61.500 C 352 66, 352 66, 356.345 66 C 359.284 66, 361.225 65.408, 362.345 64.171 C 363.255 63.165, 364 61.680, 364 60.871 C 364 60.062, 363.460 58.860, 362.800 58.200 C 362.140 57.540, 359.440 57, 356.800 57 C 352 57, 352 57, 352 61.500 M 386 61.552 C 386 66.105, 386 66.105, 391.147 65.802 C 394.519 65.604, 396.639 64.950, 397.294 63.905 C 397.844 63.027, 397.995 61.115, 397.628 59.655 C 397.009 57.186, 396.579 57, 391.481 57 C 386 57, 386 57, 386 61.552 M 206.821 83.750 C 204.850 85.813, 202.733 88.483, 202.118 89.684 C 201.503 90.886, 201 93.023, 201 94.434 C 201 96.278, 201.529 97, 202.878 97 C 203.910 97, 205.262 96.389, 205.882 95.642 C 206.501 94.896, 207.843 91.858, 208.862 88.892 C 209.882 85.927, 211.053 82.713, 211.465 81.750 C 211.877 80.787, 211.807 80, 211.310 80 C 210.813 80, 208.793 81.688, 206.821 83.750" stroke="none" fill="#801916" fill-rule="evenodd"/></svg>