<svg xmlns="http://www.w3.org/2000/svg" width="666" height="375" viewBox="0 0 666 375" version="1.1"><path d="" stroke="none" fill="#6b1615" fill-rule="evenodd"/><path d="M 96.768 93.420 C 94.249 94.319, 93.254 94.386, 93.709 93.626 C 94.116 92.947, 93.776 92.992, 92.850 93.741 C 92.006 94.424, 91.020 94.687, 90.658 94.325 C 90.296 93.963, 90 94.218, 90 94.892 C 90 95.566, 89.601 95.871, 89.113 95.570 C 88.626 95.269, 87.707 95.648, 87.072 96.414 C 86.189 97.477, 86.222 97.944, 87.208 98.394 C 87.919 98.717, 87.564 98.755, 86.421 98.478 C 84.842 98.095, 82.859 99.518, 78.171 104.400 C 74.777 107.935, 72 111.711, 72 112.791 C 72 113.871, 71.213 115.373, 70.250 116.128 C 68.725 117.324, 68.628 117.301, 69.500 115.953 C 70.050 115.102, 69.719 115.256, 68.765 116.296 C 67.476 117.699, 67.283 118.660, 68.015 120.027 C 69.340 122.504, 69.255 123.265, 67.750 122.399 C 67.024 121.981, 66.849 122.061, 67.333 122.590 C 68.166 123.499, 68.629 123.640, 71.559 123.875 C 72.416 123.944, 72.840 124.450, 72.500 125 C 72.160 125.550, 72.568 126, 73.406 126 C 74.244 126, 75.411 125.100, 76 124 C 76.589 122.900, 77.744 122, 78.567 122 C 79.389 122, 80.358 121.213, 80.719 120.250 C 81.081 119.287, 82.079 117.904, 82.938 117.176 C 84.230 116.080, 84.241 115.965, 83 116.507 C 82.175 116.867, 82.709 116.046, 84.186 114.684 C 85.664 113.321, 86.665 111.999, 86.412 111.745 C 86.159 111.492, 86.724 110.658, 87.668 109.893 C 89.155 108.686, 89.269 108.700, 88.520 110 C 87.952 110.987, 88.376 110.869, 89.761 109.656 C 91.012 108.560, 91.619 107.172, 91.259 106.232 C 90.810 105.063, 91.087 104.819, 92.326 105.295 C 93.247 105.648, 94 105.501, 94 104.969 C 94 104.436, 95.602 104, 97.559 104 C 99.677 104, 100.868 104.405, 100.500 105 C 100.160 105.550, 100.414 106, 101.063 106 C 101.948 106, 101.935 106.373, 101.011 107.487 C 100.332 108.305, 100.037 109.655, 100.357 110.487 C 100.676 111.319, 100.543 112, 100.062 112 C 99.581 112, 99.402 112.821, 99.664 113.823 C 99.926 114.826, 99.115 117.386, 97.860 119.512 C 96.606 121.638, 96.119 123.045, 96.778 122.637 C 97.580 122.141, 97.780 122.410, 97.382 123.448 C 97.054 124.302, 96.398 125, 95.924 125 C 95.451 125, 95.350 125.749, 95.701 126.664 C 96.163 127.868, 95.976 128.103, 95.024 127.515 C 94.006 126.886, 93.863 127.320, 94.394 129.435 C 94.839 131.207, 94.719 131.944, 94.052 131.532 C 93.440 131.154, 93.264 131.525, 93.618 132.448 C 93.947 133.304, 93.691 134, 93.048 134 C 92.407 134, 92.172 134.470, 92.527 135.044 C 92.882 135.618, 92.633 136.737, 91.974 137.531 C 91.315 138.325, 91.026 139.626, 91.332 140.423 C 91.638 141.219, 91.497 142.012, 91.019 142.185 C 90.541 142.358, 90.004 143.175, 89.825 144 C 89.646 144.825, 89.050 145.831, 88.500 146.235 C 87.876 146.693, 87.958 146.975, 88.719 146.985 C 89.389 146.993, 89.679 147.672, 89.364 148.494 C 89.048 149.316, 88.339 149.710, 87.788 149.369 C 87.167 148.985, 87.042 149.558, 87.460 150.875 C 87.876 152.183, 87.702 153, 87.008 153 C 86.389 153, 86.172 153.470, 86.527 154.044 C 86.882 154.618, 86.435 156.214, 85.533 157.590 C 84.632 158.965, 84.163 160.937, 84.491 161.971 C 84.862 163.139, 84.484 164.189, 83.495 164.743 C 82.620 165.233, 81.834 166.729, 81.750 168.067 C 81.665 169.405, 81.124 170.831, 80.548 171.235 C 79.867 171.712, 79.947 171.975, 80.776 171.985 C 81.754 171.996, 81.696 172.687, 80.526 174.950 C 79.687 176.573, 79 178.598, 79 179.450 C 79 180.303, 78.498 181, 77.883 181 C 77.259 181, 76.997 181.882, 77.290 183 C 77.577 184.100, 77.330 185, 76.740 185 C 76.150 185, 75.945 185.279, 76.286 185.619 C 76.626 185.960, 76.236 186.907, 75.418 187.724 C 74.527 188.616, 74.189 190.019, 74.573 191.231 C 75 192.574, 74.844 193.021, 74.107 192.566 C 73.498 192.190, 73 192.321, 73 192.858 C 73 193.394, 73.482 193.994, 74.072 194.191 C 74.696 194.399, 74.251 195.682, 73.007 197.264 C 71.832 198.758, 71.151 200.435, 71.494 200.990 C 71.837 201.546, 71.593 202, 70.951 202 C 70.195 202, 70.012 202.911, 70.432 204.584 C 70.904 206.465, 70.751 206.964, 69.870 206.420 C 69.038 205.906, 68.860 206.192, 69.299 207.336 C 69.650 208.251, 69.549 209, 69.076 209 C 68.602 209, 67.931 209.739, 67.584 210.641 C 67.034 212.074, 67.169 212.106, 68.641 210.891 C 70.178 209.623, 70.221 209.700, 69.129 211.750 C 68.469 212.988, 67.498 214, 66.971 214 C 66.444 214, 66.180 215.012, 66.384 216.250 C 66.589 217.488, 66.024 219.365, 65.128 220.422 C 64.233 221.479, 64.057 222.018, 64.739 221.620 C 65.575 221.131, 65.784 221.400, 65.382 222.448 C 65.054 223.302, 64.335 224, 63.785 224 C 63.207 224, 63.058 225.094, 63.432 226.584 C 63.811 228.095, 63.692 228.928, 63.145 228.590 C 61.291 227.444, 61.153 230.925, 62.961 233.223 C 65.122 235.970, 69.050 236.170, 71.810 233.672 C 72.829 232.750, 73.963 232.297, 74.331 232.664 C 74.699 233.032, 75 232.845, 75 232.248 C 75 231.652, 75.267 230.339, 75.594 229.332 C 76.089 227.808, 76.007 227.752, 75.110 229 C 74.178 230.295, 74.029 230.260, 74.015 228.740 C 74.007 227.772, 74.833 226.267, 75.852 225.395 C 76.908 224.491, 77.590 222.775, 77.440 221.404 C 77.295 220.082, 77.572 219, 78.057 219 C 78.541 219, 78.650 218.251, 78.299 217.336 C 77.898 216.292, 78.057 215.917, 78.725 216.330 C 79.925 217.072, 81.311 214.313, 80.444 212.910 C 80.135 212.409, 80.367 212, 80.960 212 C 81.598 212, 81.793 211.023, 81.438 209.608 C 81.078 208.175, 81.555 205.868, 82.627 203.858 C 83.611 202.011, 84.451 200.275, 84.494 200 C 84.536 199.725, 85.138 198.478, 85.832 197.229 C 86.525 195.980, 86.844 194.556, 86.540 194.065 C 86.236 193.573, 86.460 193.013, 87.037 192.821 C 87.614 192.629, 88.207 191.334, 88.356 189.943 C 88.504 188.553, 89.004 186.802, 89.467 186.053 C 90.032 185.140, 89.932 184.924, 89.166 185.397 C 88.396 185.873, 88.240 185.515, 88.686 184.302 C 89.051 183.311, 89.983 182.119, 90.759 181.653 C 91.660 181.112, 91.951 179.940, 91.565 178.403 C 91.196 176.931, 91.398 176, 92.088 176 C 92.707 176, 92.946 175.302, 92.618 174.448 C 92.291 173.594, 92.421 173.142, 92.907 173.442 C 93.393 173.743, 94.057 173.293, 94.384 172.442 C 94.710 171.592, 94.574 171.145, 94.082 171.449 C 93.589 171.754, 93.421 171.107, 93.707 170.013 C 93.993 168.918, 94.692 168.310, 95.260 168.660 C 95.931 169.075, 96.052 168.343, 95.606 166.565 C 95.195 164.929, 95.300 164.067, 95.867 164.418 C 96.409 164.753, 96.572 164.080, 96.249 162.845 C 95.865 161.377, 96.051 160.914, 96.831 161.396 C 97.574 161.855, 97.768 161.558, 97.382 160.552 C 97.054 159.698, 97.270 159, 97.862 159 C 98.459 159, 98.658 158.221, 98.309 157.250 C 97.964 156.287, 98.050 155.835, 98.501 156.244 C 99.561 157.206, 102.311 153.312, 101.499 151.998 C 101.160 151.449, 101.471 150.993, 102.191 150.985 C 103.237 150.972, 103.229 150.797, 102.148 150.113 C 101.077 149.434, 101.232 148.951, 102.892 147.788 C 104.044 146.981, 104.690 146.023, 104.327 145.660 C 103.964 145.297, 104.144 145, 104.726 145 C 105.309 145, 106.054 144.302, 106.382 143.448 C 106.709 142.594, 106.607 142.125, 106.155 142.404 C 105.703 142.683, 105.333 142.300, 105.333 141.551 C 105.333 140.803, 105.888 140.403, 106.566 140.664 C 107.243 140.924, 108.138 140.586, 108.553 139.914 C 109.053 139.106, 108.893 138.948, 108.081 139.450 C 107.149 140.026, 107.160 139.717, 108.126 138.169 C 108.827 137.047, 109.755 136.349, 110.189 136.617 C 110.622 136.885, 110.757 136.518, 110.487 135.802 C 110.218 135.086, 111.011 133.354, 112.249 131.953 C 113.487 130.552, 114.050 130.102, 113.500 130.953 C 112.653 132.264, 112.746 132.308, 114.112 131.242 C 115.008 130.543, 115.602 128.877, 115.449 127.487 C 115.298 126.114, 115.593 125.248, 116.104 125.564 C 116.615 125.880, 116.731 126.627, 116.362 127.224 C 115.958 127.877, 116.157 128.021, 116.862 127.585 C 117.506 127.187, 117.788 126.465, 117.488 125.981 C 117.189 125.497, 117.869 124.605, 119 124 C 120.131 123.395, 120.834 122.541, 120.564 122.103 C 120.293 121.665, 121.516 120, 123.282 118.403 C 126.184 115.779, 126.301 115.746, 124.496 118.059 C 123.398 119.466, 124.201 118.791, 126.281 116.559 C 128.360 114.326, 130.531 112.624, 131.105 112.775 C 131.679 112.926, 131.878 112.611, 131.546 112.075 C 130.827 110.911, 134.644 108.662, 135.959 109.475 C 136.464 109.787, 137.323 109.245, 137.868 108.271 C 138.413 107.297, 139.228 106.500, 139.680 106.500 C 140.131 106.500, 140.370 106.109, 140.211 105.632 C 140.051 105.154, 141.036 105.043, 142.399 105.385 C 143.762 105.727, 145.157 105.556, 145.498 105.004 C 146.277 103.743, 151.456 103.695, 153.764 104.927 C 154.719 105.437, 156.334 106.116, 157.354 106.435 C 158.487 106.791, 158.985 107.596, 158.635 108.508 C 158.320 109.329, 158.468 110, 158.964 110 C 160.562 110, 161.084 113.654, 159.909 116.618 C 159.282 118.203, 158.646 121.283, 158.496 123.463 C 158.347 125.642, 157.750 127.583, 157.169 127.777 C 156.588 127.971, 156.360 128.775, 156.663 129.565 C 156.966 130.354, 156.689 131, 156.048 131 C 155.407 131, 155.160 131.450, 155.500 132 C 155.840 132.550, 155.656 133, 155.090 133 C 154.525 133, 154.322 133.675, 154.638 134.500 C 154.955 135.325, 154.828 136, 154.357 136.001 C 153.886 136.001, 153.431 137.185, 153.348 138.631 C 153.264 140.078, 152.797 141.540, 152.311 141.881 C 151.825 142.221, 151.290 144.300, 151.121 146.500 C 150.941 148.856, 150.014 151.251, 148.865 152.329 C 147.564 153.548, 147.131 154.838, 147.565 156.204 C 148.010 157.606, 147.853 158.027, 147.067 157.541 C 146.255 157.040, 146.120 157.631, 146.606 159.565 C 147.153 161.745, 147.009 162.128, 145.896 161.457 C 144.729 160.754, 144.733 160.903, 145.919 162.364 C 146.969 163.658, 147.008 164.033, 146.068 163.806 C 144.770 163.493, 141.759 171.426, 142.786 172.453 C 143.087 172.754, 142.760 173, 142.060 173 C 141.319 173, 141.035 173.650, 141.382 174.552 C 141.755 175.525, 141.568 175.851, 140.881 175.427 C 140.141 174.969, 140.017 175.479, 140.500 177 C 141.029 178.667, 140.889 179.050, 139.961 178.476 C 139.020 177.894, 138.879 178.381, 139.394 180.435 C 139.790 182.012, 139.693 182.928, 139.165 182.602 C 138.662 182.291, 138.250 183.204, 138.250 184.632 C 138.250 186.059, 137.678 187.581, 136.979 188.013 C 136.280 188.445, 135.985 189.519, 136.323 190.399 C 136.661 191.280, 136.453 192, 135.862 192 C 135.270 192, 135.045 192.675, 135.362 193.500 C 135.678 194.325, 135.475 195, 134.910 195 C 134.344 195, 134.160 195.450, 134.500 196 C 134.840 196.550, 134.656 197, 134.090 197 C 133.525 197, 133.322 197.675, 133.638 198.500 C 133.955 199.326, 133.668 200, 133 200 C 132.332 200, 132.024 200.619, 132.314 201.376 C 132.604 202.132, 132.205 203.979, 131.426 205.480 C 130.648 206.980, 130.260 208.611, 130.564 209.104 C 130.869 209.597, 130.589 210, 129.942 210 C 129.259 210, 128.986 210.838, 129.290 212.001 C 129.597 213.177, 129.406 213.751, 128.825 213.392 C 128.282 213.056, 127.926 213.618, 128.034 214.641 C 128.383 217.943, 128.025 219.133, 126.893 218.434 C 126.139 217.968, 126.013 218.467, 126.500 220 C 126.986 221.532, 126.861 222.032, 126.109 221.567 C 125.442 221.155, 125.065 221.602, 125.160 222.692 C 125.506 226.683, 124.973 229.101, 123.893 228.434 C 123.139 227.968, 123.013 228.467, 123.500 230 C 123.987 231.533, 123.861 232.032, 123.107 231.566 C 122.484 231.181, 122 231.544, 122 232.396 C 122 233.760, 128.049 235.801, 130.285 235.191 C 130.716 235.073, 132.066 234.825, 133.285 234.639 C 135.571 234.290, 135.665 234.083, 135.875 228.941 C 135.947 227.181, 136.425 226.144, 137 226.500 C 137.954 227.090, 138.449 225.043, 138.052 222.150 C 137.937 221.314, 138.337 221.090, 139.103 221.564 C 139.965 222.097, 140.147 221.824, 139.701 220.664 C 139.350 219.748, 139.546 219, 140.138 219 C 140.732 219, 140.927 218.252, 140.573 217.330 C 140.220 216.409, 140.508 215.294, 141.216 214.845 C 142.248 214.191, 142.238 214.028, 141.168 214.015 C 140.204 214.004, 140.407 213.078, 141.905 210.653 C 143.043 208.813, 143.713 207.047, 143.395 206.729 C 142.536 205.869, 144.009 201.888, 144.967 202.480 C 145.989 203.111, 147.213 200.153, 146.444 198.910 C 146.135 198.409, 146.347 198, 146.916 198 C 147.522 198, 147.712 196.808, 147.374 195.121 C 147.047 193.484, 147.273 191.949, 147.899 191.562 C 148.505 191.188, 149 190.009, 149 188.941 C 149 187.873, 149.351 187, 149.781 187 C 150.837 187, 153.071 180.925, 152.409 179.853 C 152.119 179.384, 152.385 179, 153 179 C 153.615 179, 153.859 178.581, 153.543 178.069 C 153.226 177.557, 153.425 176.856, 153.984 176.510 C 154.543 176.165, 154.993 175.346, 154.985 174.691 C 154.975 173.975, 154.582 174.099, 154 175 C 153.432 175.879, 153.024 176.012, 153.015 175.321 C 153.007 174.673, 153.563 173.548, 154.250 172.821 C 154.938 172.095, 155.655 170.600, 155.845 169.500 C 156.035 168.400, 156.636 166.957, 157.181 166.294 C 157.726 165.630, 157.892 164.634, 157.550 164.080 C 157.207 163.526, 157.833 162.167, 158.941 161.059 C 160.179 159.821, 160.705 158.395, 160.307 157.359 C 159.845 156.155, 160.026 155.898, 160.937 156.461 C 161.879 157.043, 162.041 156.706, 161.556 155.176 C 161.108 153.766, 161.566 152.434, 162.985 151.015 C 164.134 149.866, 164.762 148.424, 164.382 147.809 C 163.987 147.169, 164.140 146.968, 164.741 147.340 C 165.318 147.697, 166.057 147.293, 166.384 146.442 C 166.724 145.557, 166.555 145.157, 165.989 145.507 C 165.445 145.843, 165 145.672, 165 145.126 C 165 144.581, 165.877 143.856, 166.949 143.516 C 168.122 143.144, 168.678 142.324, 168.345 141.457 C 168.041 140.664, 168.510 139.742, 169.391 139.404 C 170.269 139.066, 170.769 138.435, 170.500 138 C 170.231 137.565, 170.712 136.941, 171.569 136.612 C 172.426 136.283, 172.876 135.608, 172.569 135.112 C 172.262 134.616, 172.712 133.941, 173.569 133.612 C 174.426 133.283, 174.848 132.563, 174.508 132.012 C 174.167 131.461, 175.262 129.546, 176.940 127.755 C 178.618 125.965, 179.993 124.162, 179.995 123.750 C 179.998 123.338, 180.675 123, 181.500 123 C 182.325 123, 182.947 122.662, 182.882 122.250 C 182.550 120.150, 183.161 119, 184.607 119 C 185.716 119, 186.009 118.467, 185.554 117.280 C 185.191 116.335, 185.219 115.886, 185.616 116.283 C 186.013 116.680, 187.266 116.216, 188.402 115.252 C 190.403 113.553, 190.424 113.561, 189.106 115.500 C 188.359 116.600, 189.495 115.560, 191.631 113.188 C 194.426 110.087, 196.002 109.064, 197.249 109.542 C 198.368 109.972, 199.201 109.641, 199.596 108.609 C 199.934 107.731, 200.616 107.262, 201.112 107.569 C 201.608 107.876, 202.283 107.426, 202.612 106.569 C 202.941 105.712, 203.635 105.274, 204.155 105.596 C 204.675 105.917, 206.734 105.405, 208.729 104.458 C 211.553 103.118, 212.707 102.994, 213.929 103.897 C 214.793 104.536, 216.273 105.319, 217.217 105.637 C 218.161 105.955, 219.206 107.074, 219.539 108.122 C 219.872 109.171, 220.449 109.842, 220.822 109.614 C 221.195 109.386, 221.503 111.405, 221.507 114.100 C 221.512 116.795, 221.144 119, 220.690 119 C 220.236 119, 220.151 119.900, 220.500 121 C 220.889 122.226, 220.680 123, 219.959 123 C 219.194 123, 219.010 123.903, 219.432 125.584 C 219.904 127.465, 219.751 127.964, 218.870 127.420 C 218.038 126.906, 217.860 127.192, 218.299 128.336 C 219.024 130.227, 218.157 133.215, 217.076 132.547 C 216.683 132.304, 216.546 133.359, 216.771 134.892 C 217.023 136.608, 216.545 138.312, 215.526 139.331 C 214.617 140.241, 214.196 141.508, 214.591 142.147 C 215.020 142.842, 214.874 143.040, 214.227 142.640 C 212.837 141.781, 211.743 145.166, 212.647 147.523 C 213.106 148.720, 212.966 149.097, 212.230 148.642 C 211.576 148.238, 211.126 148.684, 211.133 149.728 C 211.139 150.703, 210.921 152.400, 210.649 153.500 C 210.376 154.600, 210.119 156.314, 210.077 157.309 C 210.034 158.304, 209.550 158.840, 209 158.500 C 208.130 157.962, 207.525 159.990, 207.882 162.250 C 207.947 162.662, 207.592 163, 207.094 163 C 206.595 163, 206.409 164.012, 206.680 165.250 C 207.090 167.121, 206.976 167.247, 206 166 C 205.024 164.753, 204.910 164.879, 205.320 166.750 C 205.591 167.988, 205.357 169, 204.799 169 C 204.242 169, 204.059 169.712, 204.393 170.581 C 204.727 171.451, 204.359 173.078, 203.575 174.196 C 202.792 175.315, 202.390 176.853, 202.682 177.615 C 202.975 178.377, 202.668 179, 202 179 C 201.332 179, 201.045 179.674, 201.362 180.500 C 201.678 181.325, 201.515 182, 201 182 C 200.485 182, 200.350 182.749, 200.701 183.664 C 201.105 184.717, 200.944 185.084, 200.263 184.663 C 199.566 184.232, 199.386 184.759, 199.751 186.155 C 200.137 187.632, 199.950 188.087, 199.159 187.598 C 198.433 187.150, 198.061 187.556, 198.160 188.692 C 198.480 192.383, 197.997 194.116, 196.845 193.405 C 196.156 192.979, 195.961 193.129, 196.362 193.776 C 196.731 194.373, 196.539 195.167, 195.935 195.540 C 195.319 195.921, 195.110 197.302, 195.459 198.693 C 195.815 200.112, 195.685 200.923, 195.154 200.595 C 194.644 200.280, 193.993 200.917, 193.707 202.011 C 193.421 203.105, 193.622 204, 194.153 204 C 194.684 204, 194.835 204.457, 194.490 205.016 C 194.144 205.575, 193.448 205.777, 192.942 205.464 C 192.437 205.152, 192.291 205.594, 192.618 206.448 C 192.946 207.302, 192.747 208, 192.175 208 C 191.604 208, 191.265 209.201, 191.421 210.669 C 191.578 212.138, 191.100 214.500, 190.359 215.919 C 188.751 219.001, 188.561 226.610, 190.068 227.542 C 190.656 227.905, 190.886 228.855, 190.580 229.653 C 190.224 230.579, 190.442 230.845, 191.181 230.388 C 191.944 229.916, 192.131 230.215, 191.729 231.263 C 191.386 232.158, 191.833 233.432, 192.751 234.177 C 193.907 235.114, 194.167 235.138, 193.640 234.261 C 192.838 232.925, 195.498 233.541, 197.641 235.187 C 198.951 236.194, 209.025 235.850, 208.389 234.820 C 208.157 234.445, 208.425 233.856, 208.984 233.510 C 209.543 233.165, 210 233.381, 210 233.991 C 210 235.836, 212.642 233.799, 217.247 228.405 C 219.695 225.538, 222.156 223.552, 222.939 223.813 C 223.870 224.123, 224.118 223.750, 223.702 222.665 C 222.996 220.826, 225.662 217.673, 227.148 218.591 C 227.690 218.926, 227.994 218.593, 227.824 217.850 C 227.653 217.108, 227.910 216.426, 228.395 216.335 C 229.631 216.105, 230.980 213.784, 230.914 212 C 230.877 210.982, 230.556 211.143, 229.916 212.500 C 229.100 214.228, 229.022 214.133, 229.338 211.799 C 229.539 210.314, 229.433 209.130, 229.102 209.168 C 228.771 209.206, 228.275 209.147, 228 209.036 C 225.847 208.172, 222 208.127, 222 208.966 C 222 209.535, 221.213 210.007, 220.250 210.015 C 219.042 210.026, 218.876 210.270, 219.716 210.803 C 220.570 211.346, 219.922 212.503, 217.537 214.692 C 215.669 216.406, 213.861 217.528, 213.518 217.185 C 213.175 216.842, 213.172 217.284, 213.511 218.167 C 213.924 219.243, 213.116 220.493, 211.064 221.955 C 209.379 223.155, 207.993 223.768, 207.985 223.318 C 207.976 222.868, 207.582 223.111, 207.110 223.857 C 206.568 224.712, 205.459 224.963, 204.110 224.535 C 202.934 224.162, 202.210 223.469, 202.502 222.997 C 202.794 222.525, 202.632 221.890, 202.141 221.587 C 201.651 221.284, 201.250 219.911, 201.250 218.536 C 201.250 217.161, 201.644 216.280, 202.125 216.577 C 202.606 216.875, 203 216.390, 203 215.500 C 203 214.610, 202.555 214.157, 202.011 214.493 C 201.445 214.843, 201.276 214.443, 201.616 213.558 C 201.943 212.707, 202.586 212.244, 203.046 212.529 C 203.506 212.813, 203.797 211.798, 203.691 210.273 C 203.564 208.429, 203.944 207.592, 204.825 207.775 C 205.757 207.968, 205.948 207.411, 205.468 205.900 C 205.008 204.449, 205.146 203.972, 205.893 204.434 C 206.502 204.810, 207 204.641, 207 204.059 C 207 203.477, 206.564 203, 206.031 203 C 205.499 203, 205.321 202.328, 205.636 201.506 C 205.952 200.684, 206.562 200.229, 206.992 200.495 C 207.422 200.761, 207.754 200.421, 207.730 199.739 C 207.614 196.520, 208.088 194.937, 209 195.500 C 209.888 196.049, 210.405 193.909, 210.269 190.250 C 210.243 189.563, 210.608 189, 211.080 189 C 211.551 189, 211.650 188.251, 211.299 187.336 C 210.832 186.120, 211.021 185.895, 212 186.500 C 212.979 187.105, 213.168 186.880, 212.701 185.664 C 212.350 184.749, 212.499 184, 213.031 184 C 213.564 184, 214 183.523, 214 182.941 C 214 182.359, 213.438 182.211, 212.750 182.613 C 212.063 183.015, 212.288 182.442, 213.252 181.341 C 214.216 180.239, 214.679 179.012, 214.281 178.614 C 213.883 178.217, 214.182 177.505, 214.946 177.034 C 215.709 176.562, 216.333 174.786, 216.333 173.088 C 216.333 171.390, 216.735 170, 217.226 170 C 217.716 170, 217.840 169.550, 217.500 169 C 217.160 168.450, 217.385 168, 218 168 C 218.615 168, 218.837 167.546, 218.494 166.991 C 217.621 165.577, 218.944 161.847, 220.072 162.544 C 220.582 162.860, 221 162.641, 221 162.059 C 221 161.477, 220.564 161, 220.031 161 C 218.808 161, 219.810 158.094, 221.902 155.578 C 222.781 154.521, 222.943 153.982, 222.261 154.380 C 221.426 154.868, 221.216 154.601, 221.616 153.558 C 221.943 152.707, 222.661 152.290, 223.212 152.631 C 223.833 153.015, 223.958 152.442, 223.540 151.125 C 223.169 149.956, 223.273 149, 223.772 149 C 224.271 149, 225.205 147.846, 225.847 146.436 C 226.523 144.953, 226.590 144.135, 226.008 144.495 C 224.452 145.457, 224.817 143.397, 226.441 142.049 C 227.233 141.392, 227.633 140.206, 227.329 139.414 C 227.025 138.622, 227.332 137.305, 228.011 136.487 C 228.689 135.669, 228.895 135, 228.467 135 C 228.040 135, 228.446 134.165, 229.369 133.145 C 230.313 132.101, 230.772 130.569, 230.417 129.645 C 230.070 128.740, 230.236 128, 230.786 128 C 231.336 128, 232.054 127.302, 232.382 126.448 C 232.719 125.568, 232.554 125.158, 232 125.500 C 231.446 125.842, 231.281 125.432, 231.618 124.552 C 231.946 123.698, 232.529 123, 232.915 123 C 233.300 123, 233.590 118.275, 233.558 112.501 C 233.526 106.726, 233.136 102.001, 232.691 102.001 C 232.246 102, 232.206 101.438, 232.601 100.750 C 232.997 100.063, 232.952 99.834, 232.502 100.241 C 231.335 101.299, 229.020 99.113, 229.628 97.528 C 229.907 96.799, 229.586 95.862, 228.914 95.447 C 228.136 94.966, 227.948 95.107, 228.397 95.834 C 228.854 96.573, 228.557 96.767, 227.558 96.384 C 226.707 96.057, 226.231 95.435, 226.500 95 C 226.769 94.565, 226.293 93.943, 225.442 93.616 C 224.557 93.276, 224.157 93.445, 224.507 94.011 C 225.323 95.331, 224.839 95.262, 221.404 93.569 C 219.577 92.669, 216.645 92.301, 213.500 92.575 C 210.750 92.816, 207.517 93.100, 206.315 93.206 C 205.113 93.313, 204.395 93.831, 204.721 94.358 C 205.064 94.912, 204.405 95.078, 203.156 94.751 C 201.970 94.441, 201 94.622, 201 95.153 C 201 95.684, 200.547 95.838, 199.993 95.496 C 199.439 95.153, 198.717 95.574, 198.388 96.431 C 198.059 97.288, 197.448 97.777, 197.029 97.518 C 196.610 97.259, 195.425 97.978, 194.395 99.116 C 192.090 101.663, 188.365 103.836, 189.527 101.956 C 189.950 101.272, 187.715 103.232, 184.561 106.312 C 181.407 109.391, 179.109 112.367, 179.454 112.926 C 179.799 113.484, 178.942 114.228, 177.548 114.577 C 176.154 114.927, 175.262 115.615, 175.566 116.107 C 175.870 116.598, 175.694 117, 175.176 117 C 174.657 117, 173.998 117.900, 173.710 119 C 173.423 120.100, 172.583 120.964, 171.844 120.921 C 170.844 120.862, 170.818 120.714, 171.742 120.340 C 172.685 119.960, 172.715 119.336, 171.868 117.754 C 171.204 116.513, 170.960 113.082, 171.266 109.273 C 171.742 103.342, 171.588 102.690, 169.140 100.312 C 167.688 98.901, 167.057 98.052, 167.739 98.425 C 168.570 98.881, 168.778 98.585, 168.371 97.524 C 168.037 96.655, 166.805 95.433, 165.632 94.809 C 163.648 93.751, 163.604 93.799, 165 95.497 C 166.410 97.211, 166.368 97.239, 164.315 95.961 C 163.113 95.212, 162.349 94.245, 162.617 93.811 C 162.885 93.378, 162.451 93.273, 161.653 93.580 C 160.855 93.886, 159.946 93.721, 159.632 93.213 C 158.817 91.895, 144.800 92.705, 143.925 94.121 C 143.527 94.765, 142.458 95.006, 141.549 94.657 C 140.579 94.285, 140.149 94.432, 140.507 95.011 C 140.843 95.555, 140.529 96.052, 139.809 96.115 C 139.089 96.179, 138.041 96.291, 137.480 96.365 C 136.919 96.439, 135.123 97.739, 133.488 99.253 C 131.853 100.766, 130.076 101.859, 129.539 101.680 C 129.003 101.501, 127.252 102.737, 125.649 104.427 C 124.047 106.117, 123.092 106.825, 123.528 106 C 123.997 105.113, 123.949 104.840, 123.410 105.333 C 122.910 105.792, 122.444 106.579, 122.375 107.083 C 122.306 107.587, 122.194 108.402, 122.125 108.893 C 122.056 109.384, 121.261 110.069, 120.359 110.416 C 118.920 110.968, 118.889 110.827, 120.109 109.273 C 121.381 107.651, 121.347 107.620, 119.704 108.910 C 118.717 109.686, 118.160 110.973, 118.466 111.772 C 118.840 112.746, 118.543 113.039, 117.562 112.662 C 116.521 112.263, 116.276 112.589, 116.710 113.801 C 117.045 114.735, 116.946 115.162, 116.490 114.748 C 116.035 114.334, 114.927 114.661, 114.029 115.474 C 112.548 116.814, 112.386 116.627, 112.297 113.478 C 112.242 111.568, 112.577 110.238, 113.040 110.525 C 113.503 110.811, 113.646 109.347, 113.358 107.272 C 112.963 104.427, 113.097 103.869, 113.902 105 C 114.784 106.240, 114.972 106.099, 114.985 104.191 C 114.995 102.694, 114.593 102.134, 113.842 102.597 C 113.049 103.088, 112.863 102.634, 113.249 101.155 C 113.560 99.968, 113.438 99.229, 112.979 99.513 C 112.169 100.014, 110.415 96.225, 110.790 94.786 C 110.892 94.393, 110.379 94.301, 109.648 94.581 C 108.918 94.862, 107.743 94.396, 107.038 93.546 C 105.485 91.675, 101.784 91.629, 96.768 93.420 M 498.605 123.170 C 499.084 123.944, 498.793 124.135, 497.747 123.733 C 496.837 123.384, 495.932 123.736, 495.614 124.563 C 495.311 125.353, 494.400 126, 493.590 126 C 492.781 126, 491.797 126.520, 491.405 127.155 C 490.962 127.870, 491.130 128.038, 491.845 127.595 C 492.480 127.203, 493 127.359, 493 127.941 C 493 128.523, 492.397 129, 491.661 129 C 489.961 129, 490.173 134.298, 491.959 136.450 C 492.666 137.303, 492.910 138, 492.500 138 C 492.090 138, 492.315 138.675, 493 139.500 C 493.685 140.325, 494.752 140.993, 495.372 140.985 C 495.993 140.976, 495.825 140.484, 495 139.890 C 493.797 139.025, 493.896 138.955, 495.500 139.534 C 499.828 141.099, 502.317 141.322, 501.548 140.078 C 501.048 139.269, 501.406 138.971, 502.627 139.183 C 503.633 139.357, 504.526 139.050, 504.612 138.500 C 505.013 135.944, 506.290 133.061, 506.864 133.416 C 507.214 133.632, 507.500 132.095, 507.500 130 C 507.500 127.905, 507.219 126.365, 506.876 126.577 C 506.533 126.789, 505.413 125.846, 504.389 124.481 C 502.534 122.012, 497.133 120.787, 498.605 123.170 M 544.500 123.084 C 546.228 123.900, 546.133 123.978, 543.799 123.662 C 542.314 123.461, 541.189 123.736, 541.299 124.273 C 541.410 124.810, 540.875 125.477, 540.111 125.755 C 539.159 126.100, 538.969 125.825, 539.508 124.880 C 540.139 123.770, 540.031 123.743, 538.957 124.740 C 538.222 125.422, 537.504 126.547, 537.362 127.240 C 535.849 134.612, 535.895 135.555, 537.861 137.644 C 538.971 138.823, 539.695 139.972, 539.469 140.198 C 539.243 140.424, 540.907 140.650, 543.168 140.699 C 546.116 140.764, 546.885 140.512, 545.889 139.808 C 544.850 139.074, 545.053 138.947, 546.693 139.305 C 548.128 139.618, 549.511 139.043, 550.693 137.642 C 552.468 135.538, 552.464 135.527, 550.451 137 L 548.402 138.500 550.451 136.500 C 553.411 133.611, 552.837 126.786, 549.484 124.991 C 548.155 124.280, 547.304 123.316, 547.593 122.849 C 547.882 122.382, 546.854 122.032, 545.309 122.070 C 542.787 122.133, 542.704 122.237, 544.500 123.084 M 583.490 123.016 C 583.144 123.575, 582.494 123.805, 582.044 123.527 C 581.595 123.249, 580.613 123.805, 579.863 124.761 C 578.603 126.369, 578.651 126.388, 580.500 125.017 C 582.475 123.553, 582.477 123.562, 580.616 125.744 C 579.580 126.959, 578.273 127.669, 577.712 127.322 C 577.127 126.960, 576.996 127.184, 577.405 127.845 C 577.797 128.480, 577.732 129, 577.260 129 C 576.789 129, 576.424 130.755, 576.451 132.900 C 576.478 135.045, 576.837 136.594, 577.250 136.341 C 577.941 135.918, 578.401 137.460, 578.118 139.250 C 578.053 139.662, 578.337 140.026, 578.750 140.058 C 579.163 140.089, 581.247 140.298, 583.382 140.522 C 585.518 140.745, 588.045 140.382, 588.998 139.714 C 590.718 138.509, 591 137.978, 591 135.941 C 591 135.359, 591.520 135.203, 592.155 135.595 C 592.838 136.018, 593.039 135.872, 592.647 135.238 C 592.283 134.650, 592.422 133.021, 592.955 131.619 C 593.600 129.923, 593.579 128.858, 592.894 128.434 C 592.327 128.084, 592.093 127.201, 592.372 126.472 C 592.652 125.743, 592.146 124.551, 591.249 123.823 C 589.860 122.698, 589.745 122.724, 590.480 124 C 591.095 125.069, 590.769 124.997, 589.343 123.750 C 587.115 121.801, 584.448 121.467, 583.490 123.016 M 279 161.969 C 279 162.501, 278.397 162.706, 277.660 162.423 C 276.923 162.140, 275.747 162.600, 275.047 163.443 C 274.346 164.287, 273.374 164.731, 272.887 164.430 C 272.399 164.129, 272 164.323, 272 164.862 C 272 165.400, 270.696 166.127, 269.103 166.477 C 267.456 166.839, 264.758 168.847, 262.853 171.129 C 261.009 173.337, 257.813 177.002, 255.750 179.273 C 253.688 181.545, 252 184.239, 252 185.260 C 252 186.364, 251.551 186.840, 250.893 186.434 C 250.139 185.968, 250.013 186.467, 250.500 188 C 251.052 189.740, 250.906 190.065, 249.857 189.433 C 248.870 188.839, 248.909 189.130, 250 190.500 C 250.878 191.603, 250.981 192.072, 250.248 191.632 C 248.682 190.691, 246.695 195.464, 247.542 198.132 C 247.878 199.192, 247.653 200, 247.022 200 C 246.293 200, 246.123 201.292, 246.530 203.750 C 246.991 206.540, 246.879 207.116, 246.090 206 C 245.275 204.846, 245.027 205.495, 245.015 208.809 C 245.005 211.794, 245.352 212.901, 246.145 212.410 C 246.935 211.922, 247.133 212.523, 246.784 214.351 C 246.505 215.808, 246.717 217, 247.255 217 C 247.793 217, 247.972 218, 247.652 219.223 C 247.268 220.690, 247.763 222.184, 249.108 223.615 C 250.228 224.808, 251.285 226.620, 251.455 227.642 C 251.626 228.664, 252.260 229.390, 252.864 229.256 C 253.468 229.122, 254.680 230.108, 255.557 231.446 C 256.489 232.869, 257.748 233.650, 258.588 233.328 C 259.379 233.024, 260.656 233.299, 261.426 233.939 C 264.620 236.589, 278.730 237.299, 281.559 234.951 C 282.346 234.298, 283.892 234, 284.996 234.289 C 286.273 234.623, 286.761 234.422, 286.337 233.737 C 285.915 233.053, 286.287 232.896, 287.359 233.307 C 288.391 233.703, 289.813 233.187, 291.023 231.977 C 292.110 230.890, 293 230.275, 293 230.611 C 293 230.947, 293.885 230.159, 294.967 228.861 C 296.048 227.562, 296.948 226.893, 296.967 227.372 C 296.985 227.852, 297.670 227.689, 298.489 227.009 C 299.308 226.329, 299.731 225.374, 299.430 224.887 C 299.129 224.399, 299.407 224, 300.048 224 C 300.718 224, 300.946 223.302, 300.584 222.359 C 300.033 220.924, 300.170 220.892, 301.669 222.109 C 302.612 222.874, 303.075 222.985, 302.698 222.355 C 302.320 221.725, 302.712 220.941, 303.569 220.612 C 304.426 220.283, 304.847 219.561, 304.504 219.007 C 304.162 218.453, 304.385 218, 305 218 C 305.615 218, 305.871 217.601, 305.570 217.113 C 305.269 216.626, 305.717 215.650, 306.566 214.946 C 308.819 213.075, 310.614 209.545, 308.850 210.453 C 308.107 210.836, 308.333 210.470, 309.350 209.641 C 310.368 208.811, 310.902 207.651, 310.538 207.061 C 309.863 205.969, 311.949 199, 312.951 199 C 313.751 199, 313.403 179.461, 312.579 178.127 C 312.195 177.507, 312.203 176.480, 312.595 175.845 C 313.070 175.077, 312.866 174.965, 311.985 175.510 C 311.015 176.109, 310.836 175.868, 311.319 174.612 C 311.710 173.591, 311.576 173.144, 310.987 173.508 C 310.442 173.845, 309.569 172.996, 309.046 171.621 C 308.523 170.246, 307.162 168.622, 306.020 168.011 C 304.878 167.400, 304.251 166.403, 304.627 165.795 C 305.038 165.129, 304.851 164.974, 304.155 165.405 C 303.520 165.797, 303 165.566, 303 164.892 C 303 164.218, 302.704 163.963, 302.342 164.325 C 301.980 164.687, 300.994 164.424, 300.150 163.741 C 298.935 162.758, 298.771 162.758, 299.360 163.739 C 299.865 164.579, 299.607 164.786, 298.558 164.384 C 297.707 164.057, 297.231 163.435, 297.500 163 C 298.344 161.635, 295.741 161.336, 288.250 161.937 C 284.262 162.258, 281 162.178, 281 161.760 C 281 161.342, 280.550 161, 280 161 C 279.450 161, 279 161.436, 279 161.969 M 340.691 162.309 C 340.971 162.763, 340.593 163.050, 339.850 162.948 C 337.141 162.577, 335.898 163.026, 336.580 164.130 C 336.994 164.799, 336.746 165.082, 335.974 164.825 C 335.257 164.586, 333.281 165.788, 331.585 167.496 C 329.506 169.589, 329.152 169.770, 330.500 168.051 L 332.500 165.500 329.781 167.895 C 328.285 169.213, 327.279 170.643, 327.545 171.073 C 327.811 171.503, 326.846 173.125, 325.400 174.678 L 322.772 177.500 324.510 174.500 C 326.138 171.690, 326.139 171.604, 324.527 173.133 C 322.889 174.686, 321.667 182.324, 323.209 181.371 C 323.613 181.121, 325.176 181.723, 326.683 182.708 C 328.577 183.947, 329.152 184.062, 328.547 183.080 C 327.892 182.016, 328.081 181.817, 329.304 182.286 C 330.202 182.631, 331.245 182.413, 331.622 181.802 C 332.063 181.089, 331.805 180.952, 330.905 181.420 C 330.132 181.820, 330.288 181.503, 331.250 180.714 C 332.212 179.925, 333 178.815, 333 178.247 C 333 177.248, 335.451 175.787, 337.500 175.564 C 338.050 175.504, 338.359 174.638, 338.186 173.640 C 337.934 172.185, 338.306 171.962, 340.061 172.519 C 341.544 172.990, 342.030 172.857, 341.566 172.107 C 341.178 171.478, 341.556 171, 342.441 171 C 343.298 171, 344.035 171.563, 344.077 172.250 C 344.456 178.403, 344.414 179.756, 343.855 179.410 C 342.963 178.859, 341.864 181.971, 342.556 183.090 C 342.865 183.591, 342.704 184, 342.198 184 C 341.691 184, 341.475 185.238, 341.717 186.750 C 342.068 188.944, 341.933 189.197, 341.048 188 C 340.178 186.823, 340.077 187.092, 340.578 189.250 C 341.018 191.146, 340.821 192, 339.942 192 C 339.240 192, 338.945 192.279, 339.286 192.619 C 339.626 192.960, 339.216 193.927, 338.375 194.768 C 337.533 195.610, 337.063 197.131, 337.329 198.149 C 337.595 199.167, 337.375 200, 336.839 200 C 336.303 200, 336.152 200.902, 336.502 202.005 C 336.893 203.239, 336.631 204.204, 335.819 204.516 C 335.067 204.804, 334.547 206.415, 334.608 208.261 C 334.746 212.379, 334.081 214.168, 332.725 213.330 C 332.057 212.917, 331.898 213.292, 332.299 214.336 C 332.650 215.251, 332.515 216, 332 216 C 331.485 216, 331.350 216.749, 331.701 217.664 C 332.163 218.868, 331.976 219.103, 331.024 218.515 C 330.013 217.890, 329.859 218.304, 330.360 220.298 C 330.836 222.195, 330.539 223.170, 329.256 223.917 C 328.176 224.546, 328.004 224.951, 328.809 224.970 C 329.611 224.988, 329.810 225.485, 329.324 226.250 C 328.888 226.938, 328.517 228.175, 328.500 229 C 328.483 229.825, 328.112 231.063, 327.676 231.750 C 326.313 233.895, 327.950 235, 332.492 235 C 335.987 235, 336.993 234.598, 337.500 233 C 337.849 231.900, 338.581 231, 339.126 231 C 339.672 231, 339.840 230.550, 339.500 230 C 339.160 229.450, 339.407 229, 340.048 229 C 340.691 229, 340.947 228.304, 340.618 227.448 C 340.229 226.434, 340.425 226.144, 341.181 226.612 C 341.955 227.090, 342.128 226.775, 341.701 225.664 C 340.921 223.629, 341.877 220.806, 343.093 221.558 C 343.579 221.858, 343.681 221.332, 343.319 220.388 C 342.824 219.099, 343.013 218.877, 344.080 219.496 C 344.861 219.950, 345.199 219.985, 344.832 219.575 C 343.884 218.518, 346.006 212.885, 347.097 213.560 C 347.937 214.079, 348.133 213.577, 348.411 210.208 C 348.470 209.498, 349.134 208.535, 349.887 208.070 C 350.640 207.604, 350.948 206.725, 350.572 206.116 C 350.195 205.507, 351.150 203.808, 352.694 202.341 C 354.237 200.873, 354.825 200.005, 354 200.411 C 353.175 200.816, 353.400 200.421, 354.500 199.531 C 355.600 198.642, 356.378 197.704, 356.230 197.446 C 355.870 196.825, 358.902 191, 359.585 191 C 359.878 191, 359.797 191.520, 359.405 192.155 C 358.959 192.876, 359.131 193.037, 359.862 192.585 C 360.506 192.187, 360.756 191.415, 360.419 190.869 C 360.081 190.323, 361.761 188.011, 364.153 185.731 C 366.544 183.451, 367.825 181.991, 367 182.485 C 365.709 183.259, 365.690 183.150, 366.863 181.703 C 367.613 180.778, 368.554 180.224, 368.954 180.472 C 369.354 180.719, 370.692 179.556, 371.926 177.886 C 373.300 176.028, 374.739 175.070, 375.637 175.414 C 376.444 175.724, 376.848 175.563, 376.536 175.058 C 376.223 174.552, 376.425 173.856, 376.984 173.510 C 377.543 173.165, 378 173.344, 378 173.910 C 378 174.475, 378.713 174.664, 379.584 174.329 C 380.859 173.840, 380.908 173.557, 379.834 172.876 C 378.759 172.195, 378.792 172.005, 380 171.897 C 382.922 171.636, 384.529 172.199, 386.970 174.337 C 388.474 175.654, 388.915 175.816, 388.097 174.750 C 387.353 173.780, 387.208 173, 387.771 173 C 388.329 173, 389.059 173.712, 389.393 174.582 C 390.365 177.115, 390.093 182, 388.980 182 C 388.420 182, 388.165 183.125, 388.414 184.500 C 388.747 186.338, 388.422 187.021, 387.184 187.079 C 386.258 187.122, 385.997 187.363, 386.605 187.614 C 387.212 187.865, 387.498 189.174, 387.240 190.523 C 386.982 191.873, 386.373 192.730, 385.886 192.429 C 385.399 192.128, 385 193.034, 385 194.441 C 385 195.848, 384.550 197, 384 197 C 383.450 197, 383.073 197.338, 383.161 197.750 C 383.250 198.162, 382.783 199.813, 382.123 201.417 C 381.168 203.738, 381.186 204.501, 382.211 205.152 C 383.410 205.912, 382.575 206.424, 380.676 206.094 C 380.222 206.015, 380.167 206.462, 380.554 207.087 C 380.940 207.712, 380.636 208.616, 379.878 209.096 C 379.030 209.634, 378.945 209.975, 379.656 209.985 C 380.316 209.993, 380.589 210.854, 380.293 211.989 C 380.007 213.083, 379.374 213.731, 378.886 213.430 C 378.029 212.900, 377.568 215.076, 377.948 217.850 C 378.058 218.650, 377.655 218.905, 376.960 218.475 C 376.126 217.960, 375.993 218.401, 376.500 220 C 377.019 221.635, 376.882 222.045, 376 221.500 C 375.128 220.961, 374.976 221.349, 375.460 222.875 C 375.852 224.108, 375.700 225, 375.099 225 C 374.529 225, 374.350 225.749, 374.701 226.664 C 375.154 227.843, 374.970 228.099, 374.070 227.543 C 373.068 226.924, 373.040 227.206, 373.935 228.879 C 374.560 230.046, 374.657 231, 374.152 231 C 373.647 231, 373.022 231.809, 372.763 232.798 C 372.408 234.155, 372.933 234.653, 374.896 234.827 C 376.328 234.954, 378.734 235.207, 380.242 235.390 C 381.751 235.573, 383.493 235.111, 384.115 234.362 C 384.736 233.613, 384.910 233, 384.500 233 C 384.090 233, 384.256 232.396, 384.869 231.658 C 385.481 230.920, 385.687 230.020, 385.325 229.658 C 384.963 229.296, 385.222 229, 385.901 229 C 386.704 229, 386.899 228.258, 386.460 226.875 C 386.006 225.445, 386.148 224.973, 386.893 225.434 C 387.569 225.852, 388 225.294, 388 224 C 388 222.835, 388.408 222.134, 388.907 222.442 C 389.405 222.751, 389.617 222.215, 389.376 221.251 C 389.136 220.288, 390.049 218.225, 391.407 216.668 C 392.764 215.110, 393.652 213.256, 393.380 212.547 C 393.108 211.838, 393.614 210.978, 394.506 210.636 C 395.397 210.294, 395.855 209.574, 395.523 209.036 C 394.923 208.066, 397.563 202, 398.585 202 C 398.878 202, 398.797 202.520, 398.405 203.155 C 397.972 203.854, 398.129 204.038, 398.802 203.622 C 399.413 203.245, 399.631 202.202, 399.286 201.304 C 398.896 200.287, 399.062 199.920, 399.725 200.330 C 400.850 201.025, 402.138 198.803, 402.485 195.568 C 402.599 194.505, 404.226 192.255, 406.100 190.568 C 407.974 188.880, 409.078 187.838, 408.554 188.250 C 408.029 188.662, 407.172 189, 406.650 189 C 406.127 189, 407.455 187.711, 409.600 186.136 C 411.745 184.560, 414.623 181.973, 415.996 180.386 L 418.493 177.500 414.996 180.498 L 411.500 183.496 414.969 179.725 C 416.876 177.651, 419.008 176.173, 419.707 176.441 C 420.405 176.709, 420.869 176.382, 420.738 175.714 C 420.606 175.042, 421.481 174.533, 422.700 174.574 C 423.918 174.615, 424.626 174.204, 424.286 173.654 C 423.923 173.067, 424.353 172.921, 425.336 173.299 C 426.258 173.653, 427 173.453, 427 172.852 C 427 172.196, 427.889 172.030, 429.250 172.434 C 430.488 172.800, 432.175 173.250, 433 173.433 C 433.825 173.616, 434.388 174.268, 434.250 174.883 C 434.113 175.497, 434.352 176, 434.782 176 C 435.212 176, 435.659 177.150, 435.775 178.555 C 435.898 180.036, 435.569 180.852, 434.993 180.496 C 434.447 180.158, 434 180.835, 434 182 C 434 183.365, 434.444 183.893, 435.250 183.485 C 435.938 183.137, 435.626 183.560, 434.559 184.426 C 433.140 185.576, 433.006 186.009, 434.059 186.032 C 435.173 186.056, 435.106 186.363, 433.766 187.381 C 432.812 188.105, 432.279 188.945, 432.581 189.248 C 433.446 190.112, 431.007 198.123, 430.058 197.536 C 428.870 196.802, 427.932 199.658, 428.701 201.664 C 429.105 202.717, 428.944 203.084, 428.263 202.663 C 427.578 202.239, 427.377 202.725, 427.710 203.999 C 428.014 205.162, 427.741 206, 427.058 206 C 426.411 206, 426.160 206.450, 426.500 207 C 426.840 207.550, 426.703 208, 426.197 208 C 425.690 208, 425.399 209.125, 425.549 210.500 C 425.700 211.875, 425.428 213, 424.943 213 C 424.459 213, 424.322 213.675, 424.638 214.500 C 424.955 215.325, 424.730 216, 424.138 216 C 423.547 216, 423.322 216.675, 423.638 217.500 C 423.955 218.325, 423.758 219, 423.201 219 C 422.643 219, 422.441 219.970, 422.751 221.156 C 423.138 222.634, 422.951 223.088, 422.158 222.597 C 420.389 221.504, 420.705 227.848, 422.509 229.652 C 423.339 230.482, 423.720 231.644, 423.355 232.235 C 422.961 232.872, 423.161 233.018, 423.845 232.595 C 424.480 232.203, 425 232.359, 425 232.941 C 425 233.523, 425.900 234, 427 234 C 428.100 234, 429 234.431, 429 234.957 C 429 235.484, 431.204 235.822, 433.897 235.707 C 436.591 235.593, 438.635 235.237, 438.440 234.915 C 438.037 234.249, 445.103 230.544, 446.250 230.820 C 446.663 230.919, 447 230.170, 447 229.155 C 447 227.241, 449.919 224, 451.643 224 C 452.872 224, 452.828 218.465, 451.590 217.333 C 451.055 216.843, 450.982 217.118, 451.414 218 C 452.033 219.265, 451.941 219.259, 450.824 217.961 C 449.453 216.367, 444.550 215.462, 445.485 216.976 C 446.196 218.126, 441.809 223.229, 438.660 224.914 C 436.480 226.081, 435.910 226.053, 434.572 224.715 C 433.406 223.549, 433.328 223.035, 434.259 222.656 C 435.191 222.278, 435.133 221.897, 434.028 221.130 C 432.762 220.251, 432.800 220.014, 434.304 219.437 C 435.428 219.006, 435.735 218.362, 435.165 217.633 C 434.088 216.256, 436.510 210, 438.119 210 C 438.741 210, 439.002 209.116, 438.710 208 C 438.411 206.855, 438.682 205.993, 439.344 205.985 C 440.072 205.975, 439.999 205.652, 439.148 205.113 C 438.083 204.438, 438.266 203.927, 440.007 202.708 C 441.222 201.856, 441.916 200.674, 441.549 200.080 C 441.182 199.486, 441.344 199, 441.910 199 C 442.475 199, 442.677 198.322, 442.359 197.492 C 442.040 196.663, 442.515 194.863, 443.413 193.492 C 444.311 192.122, 444.756 191, 444.401 191 C 444.046 191, 444.311 190.331, 444.989 189.513 C 445.668 188.695, 445.954 187.321, 445.623 186.461 C 445.246 185.477, 445.430 185.148, 446.119 185.573 C 446.850 186.025, 446.990 185.544, 446.540 184.125 C 446.169 182.956, 446.233 182, 446.683 182 C 447.933 181.999, 447.452 168.714, 446.111 166.208 C 445.461 164.994, 444.694 164, 444.406 164 C 444.118 164, 444.173 164.563, 444.528 165.250 C 444.883 165.938, 444.195 165.375, 443 164 C 441.805 162.625, 441.091 162.021, 441.415 162.657 C 441.804 163.422, 441.296 163.629, 439.917 163.268 C 438.770 162.968, 438.277 162.447, 438.821 162.111 C 439.366 161.775, 437.176 161.572, 433.955 161.661 C 430.734 161.749, 427.626 162.113, 427.049 162.470 C 426.472 162.826, 426 162.780, 426 162.368 C 426 161.955, 425.393 162.447, 424.652 163.462 C 423.777 164.658, 422.811 165.020, 421.902 164.492 C 421.131 164.045, 420.835 164.049, 421.244 164.500 C 422.154 165.505, 418.347 168.333, 417.112 167.569 C 416.625 167.268, 415.613 167.805, 414.863 168.761 C 413.613 170.356, 413.665 170.386, 415.500 169.125 C 417.936 167.451, 413.226 171.599, 409.019 174.833 C 407.350 176.116, 406.227 177.558, 406.524 178.039 C 406.821 178.519, 405.924 179.659, 404.532 180.571 C 403.139 181.483, 401.968 182.966, 401.930 183.865 C 401.875 185.132, 401.666 185.050, 401 183.500 C 399.817 180.748, 399.817 179.769, 401 180.500 C 401.550 180.840, 402 180.390, 402 179.500 C 402 178.610, 401.624 178.114, 401.165 178.398 C 400.706 178.682, 400.632 176.928, 401 174.500 C 401.407 171.819, 401.300 170.315, 400.728 170.668 C 400.178 171.008, 400.067 170.365, 400.460 169.125 C 400.876 167.817, 400.702 167, 400.008 167 C 399.389 167, 399.141 166.581, 399.457 166.069 C 399.774 165.557, 399.506 164.813, 398.862 164.415 C 398.131 163.963, 397.959 164.124, 398.405 164.845 C 399.699 166.940, 397.182 166.046, 395.323 163.750 C 393.815 161.889, 392.506 161.500, 387.748 161.500 C 384.585 161.500, 381.997 161.886, 381.998 162.357 C 381.999 162.828, 381.337 162.960, 380.526 162.649 C 379.714 162.337, 378.606 162.849, 378.057 163.792 C 377.509 164.731, 377.047 165.140, 377.030 164.699 C 377.014 164.259, 375.335 165.159, 373.300 166.699 C 371.266 168.240, 369.957 168.825, 370.393 168 C 370.828 167.175, 369.231 168.516, 366.842 170.979 C 364.454 173.443, 362.275 175.468, 362 175.479 C 361.725 175.491, 361.499 176.169, 361.498 176.987 C 361.497 177.804, 360.710 178.625, 359.748 178.810 C 358.105 179.126, 357.585 180.162, 357.896 182.500 C 357.969 183.050, 357.388 182.683, 356.606 181.683 C 355.823 180.684, 354.804 179.859, 354.341 179.850 C 353.878 179.841, 353.275 179.574, 353 179.256 C 352.725 178.939, 353.063 179.003, 353.750 179.399 C 354.438 179.794, 355 179.615, 355 179 C 355 178.385, 355.408 178.134, 355.907 178.442 C 356.405 178.751, 356.560 178.032, 356.249 176.845 C 355.924 175.600, 356.088 174.937, 356.639 175.277 C 357.185 175.614, 357.573 174.186, 357.546 171.936 C 357.521 169.775, 357.114 168.005, 356.643 168.003 C 356.172 168.001, 356.043 167.330, 356.357 166.512 C 356.671 165.694, 356.607 165.072, 356.214 165.130 C 355.821 165.189, 354.825 165.177, 354 165.103 C 352.667 164.984, 352.667 164.862, 354 164 C 355.282 163.172, 355.246 163.028, 353.750 163.015 C 352.788 163.007, 351.999 162.662, 351.998 162.250 C 351.997 161.838, 349.338 161.497, 346.089 161.492 C 342.840 161.488, 340.411 161.856, 340.691 162.309 M 484.227 163.606 C 482.977 164.987, 482.216 166.540, 482.536 167.058 C 482.856 167.576, 482.615 168, 482 168 C 481.385 168, 481.160 168.450, 481.500 169 C 481.840 169.550, 481.684 170, 481.153 170 C 480.622 170, 480.409 171.012, 480.680 172.250 C 481.090 174.118, 480.975 174.245, 480.006 173 C 479.065 171.791, 478.959 172.050, 479.459 174.334 C 479.828 176.016, 479.695 176.930, 479.133 176.582 C 478.591 176.247, 478.428 176.920, 478.751 178.155 C 479.112 179.538, 478.933 180.076, 478.251 179.655 C 477.569 179.234, 477.389 179.772, 477.751 181.155 C 478.172 182.765, 477.981 183.106, 477 182.500 C 476.019 181.894, 475.828 182.235, 476.249 183.844 C 476.559 185.030, 476.357 186, 475.799 186 C 475.242 186, 475.045 186.675, 475.362 187.500 C 475.678 188.325, 475.475 189, 474.910 189 C 474.344 189, 474.160 189.450, 474.500 190 C 474.840 190.550, 474.656 191, 474.090 191 C 473.525 191, 473.322 191.675, 473.638 192.500 C 473.955 193.325, 473.716 194, 473.107 194 C 472.498 194, 472 194.477, 472 195.059 C 472 195.641, 472.408 195.866, 472.907 195.558 C 473.405 195.249, 473.579 195.893, 473.293 196.987 C 473.007 198.082, 472.486 198.801, 472.136 198.585 C 471.786 198.369, 471.431 199.333, 471.348 200.727 C 471.264 202.121, 470.636 203.607, 469.952 204.030 C 469.268 204.452, 468.985 205.519, 469.323 206.399 C 469.661 207.280, 469.549 208, 469.076 208 C 468.602 208, 467.946 208.698, 467.618 209.552 C 467.281 210.432, 467.446 210.842, 468 210.500 C 468.553 210.158, 468.720 210.567, 468.384 211.442 C 468.057 212.293, 467.370 212.728, 466.855 212.410 C 466.302 212.069, 466.200 212.950, 466.606 214.565 C 467.091 216.498, 466.956 217.091, 466.146 216.590 C 465.516 216.201, 465 216.359, 465 216.941 C 465 217.523, 465.401 218, 465.892 218 C 466.743 218, 466.481 225.161, 465.537 227.718 C 465.290 228.388, 465.548 229.221, 466.112 229.569 C 466.675 229.917, 466.937 230.722, 466.693 231.356 C 466.190 232.669, 468.480 235.186, 469.369 234.297 C 469.690 233.977, 470.526 234.192, 471.228 234.775 C 472.484 235.817, 479.101 235.071, 483.414 233.401 C 484.822 232.856, 485.120 232.996, 484.543 233.930 C 483.924 234.932, 484.206 234.960, 485.879 234.065 C 487.046 233.440, 488 232.694, 488 232.406 C 488 232.118, 487.438 232.220, 486.750 232.633 C 485.870 233.161, 485.899 232.892, 486.846 231.724 C 487.586 230.811, 488.711 230.162, 489.346 230.282 C 489.981 230.402, 490.396 229.963, 490.269 229.308 C 490.142 228.652, 491.215 227.189, 492.654 226.058 C 494.093 224.926, 494.929 224, 494.512 224 C 494.096 224, 494.234 223.422, 494.820 222.716 C 495.462 221.943, 495.537 220.869, 495.009 220.014 C 494.527 219.234, 494.397 218.167, 494.720 217.643 C 495.044 217.119, 494.789 217.012, 494.155 217.405 C 493.520 217.797, 493 217.669, 493 217.121 C 493 215.893, 488.953 216.012, 487.261 217.290 C 486.580 217.805, 486.229 218.561, 486.481 218.970 C 486.734 219.379, 485.145 221.156, 482.950 222.920 C 480.538 224.859, 479.242 226.596, 479.672 227.313 C 480.064 227.966, 479.576 227.844, 478.588 227.041 C 476.784 225.576, 476.782 225.463, 478.417 215.500 C 478.597 214.400, 478.802 213.136, 478.872 212.691 C 478.943 212.246, 479.468 212.171, 480.040 212.525 C 480.721 212.946, 480.843 212.224, 480.394 210.435 C 479.863 208.320, 480.006 207.886, 481.024 208.515 C 481.988 209.111, 482.161 208.862, 481.671 207.585 C 480.762 205.217, 481.948 200.850, 483.277 201.671 C 483.942 202.082, 484.101 201.706, 483.701 200.664 C 483.350 199.749, 483.499 199, 484.031 199 C 484.564 199, 485 198.523, 485 197.941 C 485 197.359, 484.438 197.167, 483.750 197.515 C 483.063 197.863, 483.214 197.552, 484.088 196.824 C 484.961 196.096, 485.465 194.875, 485.208 194.111 C 484.894 193.177, 485.167 192.985, 486.040 193.525 C 486.963 194.095, 487.162 193.865, 486.726 192.729 C 486.389 191.849, 486.650 190.911, 487.306 190.644 C 488.167 190.293, 488.178 190.136, 487.344 190.079 C 486.692 190.034, 486.414 189.131, 486.707 188.011 C 486.993 186.917, 487.570 186.234, 487.989 186.493 C 488.407 186.752, 488.750 185.796, 488.750 184.368 C 488.750 182.941, 489.322 181.419, 490.021 180.987 C 490.720 180.555, 491.015 179.481, 490.677 178.601 C 490.339 177.720, 490.485 177, 491 177 C 491.515 177, 491.706 176.397, 491.423 175.660 C 491.140 174.923, 491.578 173.765, 492.395 173.087 C 493.212 172.409, 493.606 171.138, 493.271 170.263 C 492.866 169.208, 493.054 168.915, 493.830 169.395 C 494.474 169.793, 495 169.641, 495 169.059 C 495 168.477, 494.460 168, 493.800 168 C 492.880 168, 492.875 167.725, 493.776 166.824 C 494.678 165.922, 494.666 165.294, 493.726 164.132 C 492.715 162.882, 492.764 162.763, 494 163.455 C 495.122 164.082, 495.226 163.995, 494.414 163.110 C 493.816 162.460, 491.791 161.740, 489.914 161.512 C 487.224 161.184, 486.018 161.628, 484.227 163.606 M 529.766 162.381 C 528.812 163.105, 528.324 163.991, 528.682 164.349 C 529.040 164.707, 528.782 165, 528.108 165 C 527.434 165, 527.160 165.450, 527.500 166 C 527.840 166.550, 527.615 167, 527 167 C 526.385 167, 526.160 167.450, 526.500 168 C 526.840 168.550, 526.641 169, 526.059 169 C 525.477 169, 525 169.477, 525 170.059 C 525 170.641, 525.563 170.833, 526.250 170.485 C 526.938 170.137, 526.747 170.472, 525.828 171.229 C 524.908 171.987, 523.857 174.605, 523.493 177.047 C 523.129 179.489, 522.395 181.756, 521.863 182.085 C 521.330 182.414, 521.011 183.092, 521.153 183.592 C 521.295 184.091, 520.644 185.940, 519.706 187.700 C 517.577 191.694, 517.506 192.999, 519.555 190.441 C 521.049 188.577, 521.067 188.589, 520.020 190.750 C 519.420 191.988, 518.495 193, 517.965 193 C 517.434 193, 517 193.477, 517 194.059 C 517 194.641, 517.354 194.900, 517.786 194.632 C 518.218 194.365, 518.571 194.981, 518.571 196 C 518.571 197.019, 518.218 197.635, 517.786 197.368 C 517.354 197.100, 517 197.809, 517 198.941 C 517 200.073, 516.564 201, 516.031 201 C 515.499 201, 515.350 201.749, 515.701 202.664 C 516.062 203.605, 515.927 204.073, 515.390 203.741 C 514.868 203.419, 513.951 204.720, 513.352 206.634 C 512.399 209.680, 512.465 210.043, 513.882 209.555 C 515.027 209.159, 514.908 209.508, 513.475 210.748 C 512.361 211.712, 511.617 213.341, 511.821 214.368 C 512.058 215.563, 511.784 215.985, 511.062 215.538 C 510.296 215.065, 510.082 215.669, 510.399 217.416 C 510.656 218.832, 510.297 220.560, 509.603 221.255 C 508.908 221.949, 508.546 223.139, 508.799 223.898 C 509.104 224.812, 508.829 225.012, 507.984 224.490 C 507.024 223.897, 506.868 224.337, 507.352 226.268 C 507.764 227.908, 507.546 229.016, 506.748 229.338 C 505.799 229.721, 505.792 229.861, 506.719 229.921 C 508.427 230.032, 507.107 233, 505.349 233 C 504.559 233, 503.985 233.563, 504.075 234.250 C 504.472 237.312, 503.921 238.907, 502.636 238.414 C 501.886 238.126, 500 239.239, 498.445 240.886 C 496.890 242.534, 495.177 243.610, 494.639 243.277 C 494.053 242.915, 493.938 243.397, 494.353 244.477 C 494.966 246.074, 494.847 246.122, 493.331 244.891 C 492.272 244.032, 491.896 243.967, 492.349 244.721 C 492.824 245.512, 492.190 246.165, 490.548 246.577 C 489.154 246.927, 488.231 247.564, 488.496 247.993 C 488.761 248.422, 488.308 249.329, 487.489 250.009 C 486.670 250.689, 486 250.879, 486 250.431 C 486 249.984, 485.361 250.491, 484.581 251.559 C 483.800 252.626, 482.675 253.556, 482.081 253.625 C 481.486 253.694, 480.523 253.806, 479.941 253.875 C 479.359 253.944, 479.077 254.338, 479.316 254.750 C 479.555 255.162, 478.379 256.850, 476.702 258.500 C 475.026 260.150, 474.281 260.600, 475.047 259.500 C 476.135 257.938, 475.851 258.024, 473.751 259.895 C 472.272 261.213, 471.278 262.641, 471.543 263.069 C 471.807 263.497, 470.667 264.813, 469.010 265.993 C 467.352 267.173, 465.507 269.120, 464.909 270.320 C 464.175 271.793, 464.653 271.527, 466.384 269.500 L 468.946 266.500 467.723 269.252 C 467.050 270.765, 465.706 272.260, 464.735 272.574 C 463.765 272.887, 463.229 273.562, 463.544 274.072 C 463.860 274.582, 463.656 275, 463.090 275 C 462.525 275, 462.320 275.671, 462.635 276.492 C 462.957 277.330, 462.532 278.242, 461.667 278.574 C 460.754 278.925, 460.374 279.810, 460.733 280.747 C 461.157 281.851, 460.957 282.091, 460.070 281.543 C 459.075 280.928, 459.039 281.204, 459.903 282.819 C 460.551 284.030, 460.627 285.112, 460.088 285.446 C 459.584 285.757, 458.971 285.447, 458.726 284.756 C 458.482 284.065, 458.331 286.169, 458.391 289.432 C 458.476 294.037, 458.989 295.900, 460.688 297.761 C 461.892 299.080, 462.631 300.798, 462.331 301.579 C 462.009 302.418, 462.401 303, 463.286 303 C 464.111 303, 465.045 303.675, 465.362 304.500 C 465.678 305.325, 466.514 305.993, 467.219 305.985 C 468.115 305.974, 468.049 305.678, 467 305 C 466.082 304.407, 465.966 304.025, 466.700 304.015 C 467.360 304.007, 468.359 304.788, 468.920 305.750 C 469.481 306.712, 469.953 306.980, 469.970 306.344 C 469.986 305.708, 470.788 305.342, 471.750 305.530 C 478.478 306.849, 480.440 306.954, 479 305.918 C 477.836 305.080, 478.116 304.973, 480.250 305.438 C 481.843 305.786, 483 305.610, 483 305.019 C 483 304.459, 483.927 304, 485.059 304 C 486.191 304, 486.871 303.601, 486.570 303.113 C 486.269 302.626, 486.692 301.671, 487.511 300.991 C 488.330 300.311, 489 300.105, 489 300.533 C 489 300.960, 489.900 300.495, 491 299.500 C 492.100 298.505, 493 297.133, 493 296.452 C 493 295.771, 493.704 294.944, 494.563 294.614 C 495.423 294.284, 495.845 293.558, 495.500 293 C 495.155 292.442, 495.574 291.717, 496.431 291.388 C 497.288 291.059, 497.740 290.388, 497.435 289.895 C 497.131 289.403, 497.385 289, 498 289 C 498.615 289, 498.869 288.597, 498.565 288.105 C 498.260 287.612, 498.649 286.965, 499.428 286.666 C 500.334 286.318, 500.636 285.323, 500.265 283.905 C 499.868 282.388, 500.047 281.911, 500.831 282.396 C 501.595 282.868, 501.760 282.538, 501.326 281.407 C 500.922 280.355, 501.345 279.221, 502.438 278.422 C 503.465 277.671, 503.885 276.624, 503.446 275.912 C 502.941 275.095, 503.108 274.949, 503.953 275.471 C 504.881 276.044, 505.036 275.688, 504.540 274.125 C 504.169 272.956, 504.297 272, 504.826 272 C 505.354 272, 506.054 271.302, 506.382 270.448 C 506.719 269.568, 506.554 269.158, 506 269.500 C 505.447 269.842, 505.280 269.433, 505.616 268.558 C 505.943 267.707, 506.540 267.216, 506.944 267.466 C 507.348 267.715, 507.740 266.283, 507.816 264.284 C 507.891 262.284, 508.526 260.284, 509.226 259.839 C 509.927 259.394, 510.107 259.024, 509.628 259.015 C 509.148 259.007, 509.256 258.396, 509.869 257.658 C 510.481 256.920, 510.687 256.020, 510.325 255.658 C 509.963 255.296, 510.240 255, 510.942 255 C 511.814 255, 512.012 254.183, 511.568 252.416 C 511.096 250.535, 511.249 250.036, 512.130 250.580 C 512.962 251.094, 513.140 250.808, 512.701 249.664 C 512.350 248.749, 512.451 248, 512.924 248 C 513.398 248, 514.054 247.302, 514.382 246.448 C 514.748 245.493, 514.565 245.151, 513.906 245.558 C 512.255 246.578, 515.637 240.542, 517.621 238.927 C 519.201 237.642, 519.306 237.698, 518.685 239.500 C 518.011 241.455, 518.035 241.454, 519.748 239.448 C 520.712 238.319, 521.950 237.262, 522.500 237.098 C 523.050 236.934, 523.350 236.282, 523.167 235.650 C 522.983 235.017, 523.155 234.822, 523.548 235.215 C 523.941 235.608, 525.216 235.400, 526.381 234.752 C 527.547 234.105, 528.789 233.655, 529.143 233.752 C 529.496 233.849, 530.982 232.820, 532.444 231.464 C 533.907 230.109, 535.556 229, 536.111 229 C 536.665 229, 536.840 228.550, 536.500 228 C 536.160 227.450, 536.331 227, 536.879 227 C 537.427 227, 537.810 226.131, 537.730 225.069 C 537.650 224.007, 537.275 223.330, 536.897 223.564 C 536.519 223.797, 535.976 223.379, 535.689 222.633 C 534.870 220.499, 531.003 219.850, 530.985 221.844 C 530.973 223.132, 530.782 223.204, 530.124 222.166 C 529.448 221.100, 529.151 221.163, 528.646 222.480 C 528.299 223.386, 527.599 223.870, 527.092 223.557 C 526.586 223.244, 526.017 223.450, 525.828 224.016 C 525.639 224.582, 524.251 225.268, 522.743 225.542 C 520.701 225.912, 520 225.636, 520 224.461 C 520 223.592, 520.445 223.157, 520.989 223.493 C 521.544 223.836, 521.730 223.459, 521.413 222.633 C 521.102 221.824, 521.662 219.888, 522.657 218.331 C 524.442 215.537, 524.440 215.519, 522.483 216.970 C 521.090 218.002, 521.244 217.582, 523 215.558 C 524.375 213.974, 524.943 212.998, 524.261 213.391 C 523.428 213.870, 523.217 213.598, 523.616 212.558 C 523.943 211.707, 524.689 211.308, 525.275 211.670 C 525.912 212.064, 526.116 211.743, 525.781 210.872 C 525.474 210.071, 525.817 208.604, 526.543 207.611 C 527.269 206.618, 527.618 205.169, 527.319 204.390 C 527.021 203.612, 527.273 202.376, 527.879 201.645 C 528.486 200.914, 528.708 200.041, 528.372 199.706 C 528.037 199.370, 528.490 198.367, 529.381 197.476 C 531.143 195.714, 531.610 193.505, 530.011 194.493 C 529.445 194.843, 529.276 194.443, 529.616 193.558 C 529.943 192.707, 530.682 192.303, 531.259 192.660 C 531.905 193.060, 532.008 192.822, 531.526 192.043 C 531.070 191.305, 531.319 190.412, 532.122 189.904 C 533.285 189.167, 533.281 189.028, 532.095 189.015 C 531.039 189.004, 531.163 188.461, 532.595 186.828 C 533.820 185.431, 533.965 184.948, 533 185.475 C 531.781 186.140, 531.734 186.041, 532.750 184.947 C 533.438 184.206, 534 182.763, 534 181.741 C 534 180.637, 534.449 180.160, 535.107 180.566 C 535.881 181.044, 535.999 180.272, 535.500 178 C 535.060 175.998, 535.155 174.978, 535.747 175.344 C 536.275 175.670, 537.227 174.798, 537.861 173.405 C 538.537 171.922, 538.598 171.131, 538.008 171.495 C 536.449 172.459, 536.817 171.326, 538.662 169.481 C 539.576 168.566, 539.914 167.522, 539.412 167.159 C 537.958 166.108, 537.648 162.664, 539.088 163.554 C 539.883 164.046, 540.051 163.892, 539.570 163.114 C 539.147 162.429, 537.961 162.195, 536.791 162.566 C 535.430 162.998, 534.978 162.845, 535.434 162.107 C 536.406 160.535, 531.911 160.752, 529.766 162.381 M 569.639 162.695 C 569.287 163.046, 569 164.158, 569 165.167 C 569 166.175, 568.502 167, 567.893 167 C 567.284 167, 567.045 167.675, 567.362 168.500 C 567.678 169.325, 567.471 170, 566.901 170 C 566.320 170, 566.144 170.879, 566.500 172 C 566.878 173.192, 566.680 174, 566.008 174 C 565.389 174, 565.160 174.450, 565.500 175 C 565.840 175.550, 565.684 176, 565.153 176 C 564.622 176, 564.405 176.833, 564.671 177.851 C 564.937 178.869, 564.467 180.390, 563.625 181.232 C 562.784 182.073, 562.360 183.026, 562.683 183.350 C 563.006 183.673, 562.499 185.116, 561.556 186.556 C 560.612 187.995, 560.101 189.434, 560.420 189.753 C 560.739 190.072, 561 189.733, 561 189 C 561 188.267, 561.236 187.902, 561.524 188.190 C 562.397 189.063, 560.859 192.031, 559.855 191.410 C 559.309 191.073, 559.188 191.902, 559.566 193.407 C 560.020 195.214, 559.766 196.152, 558.717 196.555 C 557.769 196.919, 557.422 197.896, 557.768 199.221 C 558.138 200.634, 557.943 201.083, 557.169 200.604 C 556.425 200.144, 556.233 200.443, 556.621 201.456 C 556.951 202.314, 556.477 204.150, 555.568 205.536 C 554.660 206.922, 554.187 208.494, 554.517 209.028 C 554.848 209.563, 554.684 210, 554.153 210 C 553.622 210, 553.409 211.012, 553.680 212.250 C 554.090 214.121, 553.976 214.247, 553 213 C 552.024 211.752, 551.909 211.879, 552.319 213.749 C 552.590 214.986, 552.465 216.213, 552.040 216.475 C 551.616 216.738, 551.498 218.155, 551.779 219.625 C 552.063 221.112, 551.884 222.047, 551.376 221.732 C 550.873 221.422, 550.416 222.920, 550.360 225.063 C 550.303 227.206, 550.618 228.736, 551.060 228.463 C 551.501 228.190, 552.144 228.425, 552.490 228.984 C 552.835 229.543, 552.626 230, 552.024 230 C 551.234 230, 551.232 230.565, 552.015 232.028 C 552.612 233.143, 553.418 233.860, 553.806 233.620 C 554.194 233.380, 556.140 233.976, 558.131 234.944 C 561.170 236.423, 562.128 236.502, 564.118 235.437 C 565.905 234.480, 566.669 234.455, 567.228 235.335 C 567.782 236.205, 567.973 236.192, 567.985 235.281 C 567.993 234.611, 568.671 234.320, 569.492 234.635 C 570.342 234.961, 571.247 234.521, 571.596 233.609 C 571.934 232.731, 572.682 232.303, 573.259 232.660 C 573.837 233.017, 574.025 232.850, 573.678 232.288 C 573.331 231.727, 574.041 230.420, 575.256 229.384 C 577.438 227.523, 577.447 227.525, 575.983 229.500 C 574.622 231.336, 574.639 231.391, 576.191 230.177 C 577.120 229.449, 577.662 228.284, 577.395 227.587 C 577.128 226.890, 577.717 225.686, 578.704 224.910 C 580.380 223.594, 580.400 223.633, 579 225.500 C 577.653 227.296, 577.658 227.377, 579.054 226.290 C 580.744 224.974, 580.557 218, 578.832 218 C 578.309 218, 578.125 217.606, 578.423 217.125 C 578.720 216.644, 577.790 216.250, 576.355 216.250 C 574.652 216.250, 573.578 216.896, 573.260 218.114 C 572.992 219.139, 572.396 219.745, 571.936 219.461 C 571.094 218.940, 569.217 221.666, 569.174 223.475 C 569.161 224.011, 568.554 224.608, 567.825 224.801 C 566.947 225.034, 567.007 224.794, 568 224.091 C 568.825 223.508, 568.993 223.024, 568.372 223.015 C 567.752 223.007, 566.685 223.675, 566 224.500 C 564.620 226.162, 562.522 226.582, 563.500 225 C 563.840 224.450, 563.626 224, 563.024 224 C 562.239 224, 562.245 223.411, 563.046 221.914 C 563.660 220.767, 563.904 219.571, 563.590 219.256 C 563.275 218.942, 563.576 217.994, 564.259 217.150 C 565.242 215.935, 565.242 215.771, 564.261 216.360 C 563.421 216.865, 563.214 216.607, 563.616 215.558 C 563.943 214.707, 564.565 214.231, 565 214.500 C 566.091 215.174, 567.064 212.330, 566.365 210.508 C 566.050 209.688, 566.725 207.437, 567.864 205.506 C 569.020 203.547, 569.654 201.261, 569.298 200.334 C 568.869 199.217, 569.044 198.909, 569.830 199.395 C 570.521 199.822, 571 199.514, 571 198.642 C 571 197.831, 570.438 196.940, 569.750 196.662 C 569.003 196.361, 569.205 196.126, 570.250 196.079 C 571.212 196.036, 572.034 195.438, 572.077 194.750 C 572.119 194.063, 572.320 192.825, 572.524 192 C 572.728 191.175, 573.160 189.222, 573.483 187.660 C 573.807 186.098, 574.769 183.755, 575.622 182.454 C 576.475 181.153, 576.882 179.618, 576.527 179.044 C 576.172 178.470, 576.344 178, 576.910 178 C 577.475 178, 577.678 177.325, 577.362 176.500 C 577.045 175.674, 577.332 175, 578 175 C 578.668 175, 578.955 174.326, 578.638 173.500 C 578.322 172.675, 578.405 172, 578.823 172 C 579.240 172, 579.612 169.812, 579.648 167.138 L 579.713 162.275 576.490 163.002 C 574.718 163.402, 572.595 163.353, 571.772 162.892 C 570.950 162.432, 569.990 162.343, 569.639 162.695 M 283.458 173.068 C 283.095 173.656, 282.197 173.906, 281.463 173.624 C 280.730 173.343, 279.911 173.650, 279.644 174.306 C 279.274 175.214, 279.139 175.208, 279.079 174.281 C 279.036 173.611, 278.328 173.321, 277.506 173.636 C 276.684 173.952, 276.303 174.682, 276.660 175.259 C 277.038 175.871, 276.829 176.012, 276.159 175.598 C 275.509 175.197, 273.867 176.108, 272.384 177.694 C 270.940 179.237, 269.330 180.376, 268.805 180.225 C 268.281 180.074, 268.136 180.412, 268.485 180.975 C 268.833 181.539, 268.650 182, 268.078 182 C 267.506 182, 266.757 183.122, 266.412 184.493 C 266.068 185.864, 265.432 186.767, 264.998 186.499 C 264.564 186.231, 263.943 186.707, 263.616 187.558 C 263.226 188.574, 263.447 188.889, 264.261 188.478 C 264.943 188.133, 264.825 188.448, 264 189.176 C 263.175 189.904, 262.343 191.400, 262.150 192.500 C 261.958 193.600, 261.347 194.781, 260.794 195.125 C 260.240 195.468, 259.664 197.043, 259.513 198.625 C 259.362 200.206, 258.885 202.357, 258.453 203.406 C 257.765 205.073, 257.615 207.914, 257.917 213.559 C 257.962 214.416, 258.445 214.843, 258.989 214.507 C 259.535 214.169, 259.734 214.530, 259.433 215.314 C 258.771 217.040, 267.803 225.290, 269.600 224.600 C 270.279 224.339, 271.090 224.792, 271.402 225.606 C 271.825 226.708, 272.442 226.834, 273.812 226.100 C 274.825 225.558, 276.744 224.965, 278.077 224.782 C 279.410 224.599, 281.063 224.097, 281.750 223.666 C 282.438 223.235, 283.461 223.167, 284.025 223.515 C 284.588 223.864, 284.926 223.778, 284.775 223.324 C 284.624 222.871, 284.880 222.431, 285.343 222.348 C 286.802 222.084, 292 216.682, 292 215.430 C 292 214.772, 292.959 213.982, 294.132 213.676 C 295.700 213.266, 296.121 212.572, 295.725 211.058 C 295.429 209.924, 295.529 209.209, 295.947 209.467 C 296.365 209.726, 297.227 208.798, 297.861 207.405 C 298.519 205.961, 298.587 205.137, 298.019 205.488 C 297.444 205.843, 297.274 205.449, 297.616 204.558 C 297.943 203.707, 298.509 203.196, 298.874 203.422 C 299.239 203.648, 299.587 201.976, 299.646 199.707 C 299.706 197.438, 300.260 195.413, 300.877 195.208 C 302.416 194.695, 302.311 184.736, 300.750 183.053 C 299.736 181.960, 299.783 181.842, 301 182.427 C 302.333 183.068, 302.333 182.998, 301 181.795 C 298.244 179.310, 294.479 174.548, 296.047 175.530 C 296.898 176.064, 296.723 175.702, 295.658 174.727 C 294.523 173.688, 292.951 173.198, 291.861 173.544 C 290.837 173.869, 290 173.654, 290 173.067 C 290 171.676, 284.318 171.677, 283.458 173.068 M 494.079 255.128 C 494.036 256.023, 493.239 257.373, 492.308 258.128 C 490.849 259.311, 490.738 259.294, 491.500 258 C 492.261 256.709, 492.149 256.690, 490.703 257.863 C 489.778 258.613, 489.249 259.595, 489.527 260.044 C 489.805 260.494, 489.506 261.187, 488.862 261.585 C 488.131 262.037, 487.959 261.876, 488.405 261.155 C 488.797 260.520, 488.848 260, 488.519 260 C 487.449 260, 480.025 268.464, 480.012 269.699 C 480.006 270.359, 478.414 272.108, 476.476 273.586 C 473.821 275.611, 473.108 276.764, 473.583 278.262 C 474.030 279.669, 473.859 280.031, 473 279.500 C 472.118 278.955, 471.981 279.365, 472.500 281 C 472.953 282.427, 472.843 283.021, 472.200 282.624 C 471.590 282.246, 471.395 282.793, 471.710 283.999 C 472.003 285.118, 471.741 286, 471.117 286 C 470.502 286, 470 287.125, 470 288.500 C 470 289.875, 470.498 291, 471.107 291 C 471.716 291, 471.960 291.661, 471.651 292.468 C 471.341 293.275, 471.596 294.250, 472.217 294.634 C 474.145 295.826, 478.953 295.565, 479.461 294.241 C 479.727 293.549, 481.036 292.485, 482.370 291.877 C 483.847 291.204, 485.027 289.617, 485.386 287.820 C 485.772 285.889, 486.385 285.120, 487.158 285.598 C 487.946 286.085, 488.137 285.801, 487.733 284.747 C 487.377 283.820, 487.747 282.927, 488.627 282.590 C 489.452 282.273, 489.847 281.561, 489.504 281.007 C 489.162 280.453, 489.434 280, 490.108 280 C 490.782 280, 491.032 279.698, 490.663 279.330 C 490.295 278.961, 490.716 277.556, 491.600 276.207 C 492.484 274.858, 492.711 274.061, 492.104 274.436 C 491.497 274.811, 491 274.690, 491 274.166 C 491 273.642, 491.723 272.937, 492.606 272.598 C 493.767 272.152, 494.033 271.268, 493.566 269.407 C 493.096 267.533, 493.249 267.036, 494.130 267.580 C 494.962 268.094, 495.140 267.808, 494.701 266.664 C 494.350 265.749, 494.525 265, 495.090 265 C 495.656 265, 495.809 264.500, 495.431 263.888 C 495.053 263.277, 495.293 262.437, 495.964 262.022 C 496.635 261.608, 497.417 259.537, 497.702 257.420 C 498.154 254.068, 498.026 253.734, 496.708 254.828 C 495.491 255.838, 495.093 255.831, 494.676 254.792 C 494.326 253.919, 494.132 254.028, 494.079 255.128" stroke="none" fill="#861814" fill-rule="evenodd"/></svg>